<svg fill="none" height="43" viewBox="0 0 2 43" width="2" xmlns="http://www.w3.org/2000/svg"><g fill="#2f221b" fill-opacity=".3"><path d="m1.32003 9.15374c.35246-.59648.5769-1.2728.64468-1.96268.04218-.83447-.04971-1.67046-.07832-2.50493-.06176-.80737-.03766-1.62678-.18528-2.42511-.15364-.79079-.47297-1.545437-.911293-2.2202486-.325356.7410876-.522678 1.5454386-.561841 2.3543086-.030126.71398.063263 1.42494.090376 2.13891.115983 1.25473-.034644 2.57423.475983 3.75666.115983.27866.259075.54527.417235.80284.04067.0482.06327.17172.10695.06025z"/><path d="m1.59717 25.8554c.27565-.6883.28168-1.4264.28017-2.1555.02711-1.6056.05875-2.9764.09339-4.0714.10695-1.2758-.06929-2.5803-.69289-3.713-.491042.7456-.810373 1.6057-.926356 2.4899-.046694.5965-.039163 1.196-.06477 1.794-.025607.9474-.045188 1.8949-.063264 2.8423-.004518.5754-.033138 1.1508-.019581 1.7262.058744.6372.25456 1.2608.57841 1.812v.0016c.015062.0361.018075.0421.019581.0858 0-.0075 0-.006 0 .0045-.001506.0362-.007531.0708-.016569.1055-.006025.0211-.013556.0406-.021088.0602.015063.0015.02862.003.043682.003.478995 0 .625105-.6281.790795-.9851z"/><path d="m1.90597 40.6214c.0482-.5001.01807-1.0047.0256-1.5078-.00904-1.0107.02109-2.023-.01054-3.0322-.08887-.8872-.36603-1.7578-.82092-2.526-.409709.6929-.674814 1.4716-.790797 2.267-.091883 1.0679-.019582 2.1464-.04067 3.2189.004519.4654-.009037.9309.006025 1.3948.073808.7893.353975 1.5635.825442 2.2037.43381-.589.70494-1.2924.80586-2.0169z"/></g></svg>