<svg fill="none" height="5" viewBox="0 0 70 5" width="70" xmlns="http://www.w3.org/2000/svg"><path d="m49.5261.303955c2.8823.007908 5.4523-.031629 8.0164.128501 3.7265.231298 7.4569.460619 11.0529 1.599314.2708.08501.7532.07315.7235.4112-.0375.42504-.5199.25502-.8125.28072-2.3901.20165-4.7624-.11268-7.1406-.28467-1.3423-.09687-2.6866-.18188-4.0309-.2313-5.2428-.19374-10.4855-.18781-15.7303-.10082-3.1749.05337-6.3518.17001-9.5247.32223-4.4817.21549-8.9594.4883-13.4371.73739-2.5264.14036-5.0529.25107-7.5755.43492-3.32513.24316-6.66017.4112-9.96754.86786-.106755.01384-.213507.03756-.32026.0435-.148268.00593-.300492-.00594-.347938-.1799-.045469-.17002.077091-.26491.201637-.34201.215483-.13443.456661-.20362.703781-.25898 2.21018-.49818 4.45793-.75913 6.70172-1.03589 4.9008-.60692 9.8272-.91729 14.7458-1.32453 3.3449-.27677 6.6878-.515978 10.0427-.644477 3.4971-.134429 6.9962-.215481 10.4934-.332119 2.1726-.071169 4.3452-.041514 6.2016-.08896z" fill="#2f221b"/></svg>