<svg width="247" height="34" viewBox="0 0 247 34" fill="none" xmlns="http://www.w3.org/2000/svg">
<g clip-path="url(#clip0_316_725)">
<path d="M16.5537 5.976C18.8737 5.976 20.9617 6.44 22.8177 7.368C24.6737 8.296 26.1237 9.58167 27.1677 11.225C28.231 12.849 28.7627 14.6857 28.7627 16.735C28.7627 18.243 28.463 19.5963 27.8637 20.795C27.2837 21.9937 26.4814 22.941 25.4567 23.637C24.432 24.3137 23.272 24.652 21.9767 24.652C21.1067 24.652 20.343 24.478 19.6857 24.13C19.0477 23.7627 18.5547 23.2697 18.2067 22.651C17.878 22.0323 17.7234 21.3557 17.7427 20.621C16.9694 21.2783 16.0414 21.607 14.9587 21.607C13.644 21.607 12.5227 21.23 11.5947 20.476C10.6667 19.722 10.2027 18.6683 10.2027 17.315C10.2027 16.2517 10.4734 15.3237 11.0147 14.531C11.5754 13.719 12.3487 13.1003 13.3347 12.675C14.34 12.2303 15.471 12.008 16.7277 12.008C18.0037 12.008 19.096 12.1433 20.0047 12.414C20.2174 11.834 20.343 11.4957 20.3817 11.399L20.4687 11.428C19.3474 10.8867 18.0424 10.616 16.5537 10.616C15.1037 10.616 13.818 10.9253 12.6967 11.544C11.5754 12.1433 10.6957 12.965 10.0577 14.009C9.43902 15.0337 9.12969 16.155 9.12969 17.373C9.12969 19.2097 9.67102 20.6403 10.7537 21.665C11.8557 22.6897 13.325 23.202 15.1617 23.202C16.167 23.202 17.2014 23.0473 18.2647 22.738C18.0134 23.3567 17.8877 24.8357 17.8877 27.175C17.1917 27.2523 16.4377 27.291 15.6257 27.291C13.3637 27.291 11.382 26.8947 9.68069 26.102C7.97935 25.3287 6.66469 24.1977 5.73669 22.709C4.80869 21.2203 4.34469 19.4417 4.34469 17.373C4.34469 15.111 4.86669 13.1197 5.91069 11.399C6.95469 9.659 8.40469 8.325 10.2607 7.397C12.1167 6.44967 14.2144 5.976 16.5537 5.976ZM21.8897 20.012C21.8897 20.1473 21.9284 20.2633 22.0057 20.36C22.1024 20.4373 22.228 20.476 22.3827 20.476C22.634 20.476 22.895 20.3503 23.1657 20.099C23.4557 19.8283 23.6974 19.4127 23.8907 18.852C24.084 18.2913 24.1807 17.5857 24.1807 16.735C24.1807 15.9617 24.026 15.256 23.7167 14.618C22.4987 17.7307 21.8897 19.5287 21.8897 20.012ZM14.9007 16.996C14.9007 17.4213 15.0457 17.75 15.3357 17.982C15.6257 18.1947 15.9834 18.301 16.4087 18.301C16.9887 18.301 17.4334 18.1947 17.7427 17.982C18.052 17.7693 18.2744 17.4213 18.4097 16.938C18.487 16.706 18.5257 16.4643 18.5257 16.213C18.5257 15.865 18.4194 15.604 18.2067 15.43C18.0134 15.256 17.7427 15.169 17.3947 15.169C16.7374 15.169 16.1574 15.3527 15.6547 15.72C15.152 16.068 14.9007 16.4933 14.9007 16.996ZM39.5885 25.29C37.9645 25.29 36.3115 25.0677 34.6295 24.623C32.9669 24.159 31.4009 23.463 29.9315 22.535L32.9765 18.388C33.8659 19.026 34.9389 19.5287 36.1955 19.896C37.4522 20.244 38.5349 20.418 39.4435 20.418C40.3135 20.418 40.9805 20.302 41.4445 20.07C41.9279 19.8187 42.1695 19.4997 42.1695 19.113C42.1695 18.8037 42.0535 18.562 41.8215 18.388C41.5895 18.214 41.2705 18.127 40.8645 18.127C40.6132 18.127 40.3232 18.1367 39.9945 18.156C39.6852 18.1753 39.4339 18.1947 39.2405 18.214C38.2352 18.33 37.2009 18.388 36.1375 18.388C34.4169 18.388 33.0152 18.069 31.9325 17.431C30.8692 16.7737 30.3375 15.7103 30.3375 14.241C30.3375 12.5397 31.1399 11.225 32.7445 10.297C34.3492 9.34967 36.7079 8.876 39.8205 8.876C41.3479 8.876 42.8849 9.09833 44.4315 9.543C45.9975 9.96833 47.3799 10.616 48.5785 11.486L45.2435 14.85C44.1415 14.27 43.1072 13.864 42.1405 13.632C41.1932 13.3807 40.2362 13.255 39.2695 13.255C38.5929 13.255 38.0129 13.3903 37.5295 13.661C37.0462 13.9317 36.8045 14.241 36.8045 14.589C36.8045 14.8597 36.9012 15.0723 37.0945 15.227C37.3072 15.3817 37.5779 15.459 37.9065 15.459C38.2352 15.459 38.6895 15.43 39.2695 15.372C40.6809 15.2753 41.7345 15.227 42.4305 15.227C44.4412 15.227 45.9975 15.5653 47.0995 16.242C48.2015 16.9187 48.7525 17.953 48.7525 19.345C48.7525 21.433 47.9405 22.9507 46.3165 23.898C44.6925 24.826 42.4499 25.29 39.5885 25.29ZM68.6171 9.166C68.4817 11.602 68.4141 14.2313 68.4141 17.054C68.4141 19.896 68.4817 22.5447 68.6171 25C67.3797 24.942 66.4034 24.913 65.6881 24.913C65.0114 24.913 64.0351 24.942 62.7591 25L61.9181 20.737C61.4734 22.2837 60.7774 23.434 59.8301 24.188C58.8827 24.9227 57.7807 25.29 56.5241 25.29C55.3641 25.29 54.3587 25.0387 53.5081 24.536C52.6574 24.014 52.0097 23.318 51.5651 22.448C51.1397 21.578 50.9271 20.6017 50.9271 19.519V15.343C50.9271 12.7717 50.8787 10.7127 50.7821 9.166H57.3071C57.1911 12.008 57.1331 14.821 57.1331 17.605C57.1331 18.4557 57.3361 19.1323 57.7421 19.635C58.1674 20.1377 58.6991 20.389 59.3371 20.389C59.9364 20.389 60.4584 20.128 60.9031 19.606C61.3671 19.0647 61.6474 18.33 61.7441 17.402V16.735C61.7827 15.227 61.8021 14.183 61.8021 13.603C61.8021 12.269 61.7634 10.79 61.6861 9.166H68.6171ZM83.6191 8.876C84.8758 8.876 86.0068 9.23367 87.0121 9.949C88.0175 10.6643 88.8005 11.6407 89.3611 12.878C89.9218 14.096 90.2021 15.4397 90.2021 16.909C90.2021 18.359 89.9218 19.7317 89.3611 21.027C88.8005 22.303 88.0078 23.3373 86.9831 24.13C85.9778 24.9033 84.8275 25.29 83.5321 25.29C82.0241 25.29 80.7288 24.9807 79.6461 24.362C78.5828 23.724 77.7901 22.7477 77.2681 21.433C77.2681 22.535 77.3068 24.304 77.3841 26.74C77.4615 29.0987 77.5001 30.7613 77.5001 31.728H70.9461C71.0621 28.132 71.1201 24.3717 71.1201 20.447C71.1201 16.5223 71.0621 12.762 70.9461 9.166H76.5141L77.3551 12.791C77.8965 11.4377 78.7085 10.4517 79.7911 9.833C80.8738 9.195 82.1498 8.876 83.6191 8.876ZM80.5161 20.07C81.3861 20.07 82.1111 19.7993 82.6911 19.258C83.2905 18.6973 83.5901 17.9723 83.5901 17.083C83.5901 16.097 83.3195 15.2947 82.7781 14.676C82.2368 14.0573 81.5021 13.748 80.5741 13.748C79.5108 13.748 78.7085 14.009 78.1671 14.531C77.6258 15.0337 77.3551 15.8843 77.3551 17.083C77.3551 17.7597 77.5291 18.33 77.8771 18.794C78.2251 19.2387 78.6408 19.5673 79.1241 19.78C79.6075 19.9733 80.0715 20.07 80.5161 20.07ZM107.584 17.75H98.13C98.2847 18.6007 98.6617 19.2967 99.261 19.838C99.8797 20.36 100.75 20.621 101.871 20.621C102.683 20.621 103.447 20.4663 104.162 20.157C104.877 19.8283 105.448 19.374 105.873 18.794C107.168 19.432 108.889 20.1183 111.035 20.853C110.436 22.2063 109.343 23.289 107.758 24.101C106.192 24.8937 104.143 25.29 101.61 25.29C98.3233 25.29 95.8873 24.536 94.302 23.028C92.736 21.5007 91.953 19.4997 91.953 17.025C91.953 14.6083 92.736 12.646 94.302 11.138C95.868 9.63 98.304 8.876 101.61 8.876C103.582 8.876 105.293 9.20467 106.743 9.862C108.193 10.5193 109.305 11.4377 110.078 12.617C110.851 13.777 111.238 15.111 111.238 16.619C111.238 17.1217 111.219 17.4987 111.18 17.75H107.584ZM102.016 13.255C101.049 13.255 100.257 13.4387 99.638 13.806C99.0193 14.1733 98.5843 14.676 98.333 15.314H105.177C104.945 14.6953 104.568 14.2023 104.046 13.835C103.524 13.4483 102.847 13.255 102.016 13.255ZM119.985 13.458C120.797 10.5387 122.817 9.079 126.046 9.079C126.606 9.079 127.148 9.11767 127.67 9.195L126.742 15.691C125.35 15.169 124.209 14.908 123.32 14.908C122.218 14.908 121.406 15.2367 120.884 15.894C120.362 16.5513 120.101 17.431 120.101 18.533V18.504L120.072 20.418C120.072 21.7907 120.11 23.318 120.188 25H113.257C113.411 22.216 113.489 19.5867 113.489 17.112C113.489 14.6373 113.411 11.9887 113.257 9.166C114.533 9.224 115.509 9.253 116.186 9.253C116.901 9.253 117.877 9.224 119.115 9.166L119.985 13.458ZM141.36 9.166H146.928C146.831 12.3367 146.783 16.8413 146.783 22.68C146.783 24.9807 146.319 26.8657 145.391 28.335C144.482 29.8043 143.274 30.8677 141.766 31.525C140.258 32.2017 138.576 32.54 136.72 32.54C134.883 32.54 133.24 32.2693 131.79 31.728C130.34 31.206 129.238 30.5003 128.484 29.611L129.789 25.174C130.833 25.7733 131.819 26.1987 132.747 26.45C133.675 26.7207 134.641 26.856 135.647 26.856C138.933 26.856 140.577 25.464 140.577 22.68C140.577 22.274 140.586 21.984 140.606 21.81C140.606 21.694 140.606 21.5393 140.606 21.346C140.625 21.1527 140.625 20.9013 140.606 20.592C139.62 23.3373 137.532 24.71 134.342 24.71C133.046 24.71 131.886 24.362 130.862 23.666C129.856 22.97 129.073 22.0323 128.513 20.853C127.952 19.6543 127.672 18.3397 127.672 16.909C127.672 15.4397 127.952 14.096 128.513 12.878C129.073 11.6407 129.856 10.6643 130.862 9.949C131.867 9.23367 132.998 8.876 134.255 8.876C137.522 8.876 139.649 10.0263 140.635 12.327L141.36 9.166ZM137.358 20.07C137.802 20.07 138.266 19.9733 138.75 19.78C139.233 19.5673 139.649 19.2387 139.997 18.794C140.345 18.33 140.519 17.7597 140.519 17.083C140.519 15.8843 140.248 15.0337 139.707 14.531C139.165 14.009 138.363 13.748 137.3 13.748C136.372 13.748 135.637 14.0573 135.096 14.676C134.554 15.2947 134.284 16.097 134.284 17.083C134.284 17.9723 134.574 18.6973 135.154 19.258C135.753 19.7993 136.488 20.07 137.358 20.07ZM167.087 9.166C166.951 11.602 166.884 14.2313 166.884 17.054C166.884 19.896 166.951 22.5447 167.087 25C165.849 24.942 164.873 24.913 164.158 24.913C163.481 24.913 162.505 24.942 161.229 25L160.388 20.737C159.943 22.2837 159.247 23.434 158.3 24.188C157.352 24.9227 156.25 25.29 154.994 25.29C153.834 25.29 152.828 25.0387 151.978 24.536C151.127 24.014 150.479 23.318 150.035 22.448C149.609 21.578 149.397 20.6017 149.397 19.519V15.343C149.397 12.7717 149.348 10.7127 149.252 9.166H155.777C155.661 12.008 155.603 14.821 155.603 17.605C155.603 18.4557 155.806 19.1323 156.212 19.635C156.637 20.1377 157.169 20.389 157.807 20.389C158.406 20.389 158.928 20.128 159.373 19.606C159.837 19.0647 160.117 18.33 160.214 17.402V16.735C160.252 15.227 160.272 14.183 160.272 13.603C160.272 12.269 160.233 10.79 160.156 9.166H167.087ZM173.302 7.455C172.084 7.455 171.175 7.15533 170.576 6.556C169.996 5.95667 169.706 5.17367 169.706 4.207C169.706 3.25967 169.996 2.47667 170.576 1.858C171.175 1.23933 172.084 0.929999 173.302 0.929999C174.462 0.929999 175.351 1.249 175.97 1.887C176.589 2.50567 176.898 3.279 176.898 4.207C176.898 5.17367 176.598 5.95667 175.999 6.556C175.4 7.15533 174.501 7.455 173.302 7.455ZM169.938 25C170.073 21.8873 170.141 19.316 170.141 17.286C170.141 14.8693 170.064 12.1627 169.909 9.166H176.869C176.714 12.0467 176.637 14.7533 176.637 17.286C176.637 19.4127 176.705 21.984 176.84 25H169.938ZM198.464 2.438C198.348 6.034 198.29 9.79433 198.29 13.719C198.29 17.605 198.348 21.3653 198.464 25H191.91L191.997 21.52C191.436 22.8153 190.624 23.7723 189.561 24.391C188.498 24.9903 187.241 25.29 185.791 25.29C184.534 25.29 183.403 24.9323 182.398 24.217C181.393 23.5017 180.61 22.535 180.049 21.317C179.488 20.0797 179.208 18.7263 179.208 17.257C179.208 15.807 179.488 14.444 180.049 13.168C180.61 11.8727 181.393 10.8383 182.398 10.065C183.423 9.27233 184.583 8.876 185.878 8.876C187.386 8.876 188.672 9.195 189.735 9.833C190.818 10.4517 191.62 11.4183 192.142 12.733C192.142 11.631 192.103 9.862 192.026 7.426C191.949 5.06733 191.91 3.40467 191.91 2.438H198.464ZM188.836 20.418C189.783 20.418 190.557 20.157 191.156 19.635C191.755 19.0937 192.055 18.243 192.055 17.083C192.055 16.0583 191.755 15.3043 191.156 14.821C190.557 14.3377 189.803 14.096 188.894 14.096C188.024 14.096 187.289 14.3763 186.69 14.937C186.11 15.4783 185.82 16.1937 185.82 17.083C185.82 18.069 186.091 18.8713 186.632 19.49C187.173 20.1087 187.908 20.418 188.836 20.418ZM216.136 17.75H206.682C206.836 18.6007 207.213 19.2967 207.813 19.838C208.431 20.36 209.301 20.621 210.423 20.621C211.235 20.621 211.998 20.4663 212.714 20.157C213.429 19.8283 213.999 19.374 214.425 18.794C215.72 19.432 217.441 20.1183 219.587 20.853C218.987 22.2063 217.895 23.289 216.31 24.101C214.744 24.8937 212.694 25.29 210.162 25.29C206.875 25.29 204.439 24.536 202.854 23.028C201.288 21.5007 200.505 19.4997 200.505 17.025C200.505 14.6083 201.288 12.646 202.854 11.138C204.42 9.63 206.856 8.876 210.162 8.876C212.134 8.876 213.845 9.20467 215.295 9.862C216.745 10.5193 217.856 11.4377 218.63 12.617C219.403 13.777 219.79 15.111 219.79 16.619C219.79 17.1217 219.77 17.4987 219.732 17.75H216.136ZM210.568 13.255C209.601 13.255 208.808 13.4387 208.19 13.806C207.571 14.1733 207.136 14.676 206.885 15.314H213.729C213.497 14.6953 213.12 14.2023 212.598 13.835C212.076 13.4483 211.399 13.255 210.568 13.255ZM240.774 2.438C240.658 6.034 240.6 9.79433 240.6 13.719C240.6 17.605 240.658 21.3653 240.774 25H234.22L234.307 21.52C233.747 22.8153 232.935 23.7723 231.871 24.391C230.808 24.9903 229.551 25.29 228.101 25.29C226.845 25.29 225.714 24.9323 224.708 24.217C223.703 23.5017 222.92 22.535 222.359 21.317C221.799 20.0797 221.518 18.7263 221.518 17.257C221.518 15.807 221.799 14.444 222.359 13.168C222.92 11.8727 223.703 10.8383 224.708 10.065C225.733 9.27233 226.893 8.876 228.188 8.876C229.696 8.876 230.982 9.195 232.045 9.833C233.128 10.4517 233.93 11.4183 234.452 12.733C234.452 11.631 234.414 9.862 234.336 7.426C234.259 5.06733 234.22 3.40467 234.22 2.438H240.774ZM231.146 20.418C232.094 20.418 232.867 20.157 233.466 19.635C234.066 19.0937 234.365 18.243 234.365 17.083C234.365 16.0583 234.066 15.3043 233.466 14.821C232.867 14.3377 232.113 14.096 231.204 14.096C230.334 14.096 229.6 14.3763 229 14.937C228.42 15.4783 228.13 16.1937 228.13 17.083C228.13 18.069 228.401 18.8713 228.942 19.49C229.484 20.1087 230.218 20.418 231.146 20.418Z" fill="#2F221B"/>
</g>
<defs>
<clipPath id="clip0_316_725">
<rect width="245.459" height="33.9841" fill="white" transform="translate(0.765625)"/>
</clipPath>
</defs>
</svg>
