<svg fill="none" height="40" viewBox="0 0 50 40" width="50" xmlns="http://www.w3.org/2000/svg"><path d="m22.2938 4.63023-9.1495 16.97747-5.28348 1.4148c.60138-1.1147 1.28866-2.0579 2.06186-2.8296.85912-.7717 1.76112-1.1575 2.70622-1.1575 2.2336 0 4.2525.9432 6.0567 2.8296 1.89 1.8863 2.835 4.2443 2.835 7.0739 0 3.0011-1.0309 5.6163-3.0928 7.8457-2.0618 2.1436-4.5962 3.2154-7.6031 3.2154-2.92092 0-5.45528-1.0718-7.60305-3.2154-2.14777-2.1437-3.22165-4.7589-3.22165-7.8457 0-1.2004.257732-2.6152.773196-4.2444.515464-1.7149 1.460484-3.8585 2.835054-6.4308l9.92265-18.2637zm27.7062 0-9.1495 16.97747-5.2835 1.4148c.6014-1.1147 1.2887-2.0579 2.0619-2.8296s1.6752-1.1575 2.7061-1.1575c2.2337 0 4.2526.9432 6.0568 2.8296 1.89 1.8863 2.835 4.2443 2.835 7.0739 0 3.0011-1.0739 5.6163-3.2217 7.8457-2.0618 2.1436-4.5962 3.2154-7.603 3.2154-2.8351 0-5.3265-1.0718-7.4743-3.2154-2.1477-2.1437-3.2216-4.7589-3.2216-7.8457 0-1.2004.2577-2.6152.7732-4.2444.5154-1.7149 1.4605-3.8585 2.835-6.4308l9.9227-18.2637z" fill="#ff6c41"/></svg>