<svg fill="none" height="7" viewBox="0 0 19 7" width="19" xmlns="http://www.w3.org/2000/svg" xmlns:xlink="http://www.w3.org/1999/xlink"><clipPath id="a"><path d="m0 0h19v7h-19z"/></clipPath><mask id="b" height="7" maskUnits="userSpaceOnUse" width="19" x="0" y="0"><path d="m19 0h-19v7h19z" fill="#fff"/></mask><g clip-path="url(#a)"><g mask="url(#b)"><path d="m-5.5 3.1c1.3 1 2.7 3.2 5.5 3.2s4.2-1.2 5.5-2.2c1.1-1 2.1-1.8 4.2-1.8s3 .8 4.2 1.8c1.3 1 2.7 2.2 5.5 2.2s4.2-2.2 5.5-3.2l-1.4-.9c-1.1 1-2.1 1.8-4.2 1.8s-3-.8-4.2-1.8-2.7-2.2-5.4-2.2c-2.8 0-4.2 1.2-5.5 2.2-1.2 1-2.1 1.8-4.2 1.8s-3-.8-4.2-1.8z" fill="#11d796"/></g></g></svg>