<svg fill="none" height="12" viewBox="0 0 71 12" width="71" xmlns="http://www.w3.org/2000/svg"><path d="m26.639 5.41713c.8987.05616 1.7951.12872 2.6938.16851 3.0565.13808 6.1084.33466 9.1392.77934.8823.12872 1.7717.25978 2.5838.65998 1.0882.53595 1.1538 1.49318.1427 2.16018-.8963.59212-1.9144.91746-2.9301 1.23106-.873.2691-1.753.5149-2.6283.7676-.1568.0445-.3651.1568-.4353-.0702-.0679-.2153.1638-.2598.3136-.323 1.2919-.5453 2.5885-1.07887 3.8757-1.63354.3674-.15914.7115-.37681 1.0602-.58042.124-.07255.2808-.16383.2574-.33468-.0234-.17552-.2106-.20595-.3464-.23638-.5172-.11467-1.0367-.23871-1.561-.30658-2.7382-.35808-5.4952-.50084-8.2498-.68339-2.6891-.17787-5.3899-.23871-8.065-.60849-.2738-.03745-.5476-.08192-.8144-.14979-.4517-.11702-.8847-.31362-.8987-.8519-.0141-.56872.4259-.8168.8987-.9268.7021-.16383 1.4136-.31126 2.1321-.38615 2.8318-.29723 5.673-.44468 8.5189-.54532 3.2906-.11701 6.5789-.25977 9.8694-.39083 3.2485-.12873 6.4946-.23639 9.743-.38617 4.2221-.19425 8.4418-.42127 12.6638-.63892.5289-.02809 1.0579-.09362 1.5868-.16383-1.4253-.18957-2.8623-.2317-4.2969-.27851-3.6323-.11702-7.2669-.16383-10.9015-.10532-3.4404.05617-6.8807.14277-10.3211.25745-2.7593.09128-5.5163.21297-8.2709.3768-4.7252.28085-9.4505.5617-14.1663.96892-3.0027.25978-6.0125.45404-9.01984.68807-2.73122.21298-5.4601.43765-8.19133.65531-.222333.01872-.53127.12637-.59212-.18022s.276167-.33936.48446-.39786c1.52359-.43063 3.101-.50084 4.66203-.65297 4.4397-.43531 8.8794-.84487 13.3238-1.23805 2.3474-.20829 4.6995-.39085 7.0515-.53596 4.3227-.26914 8.6477-.52424 12.9751-.744236 2.0783-.105317 4.1636-.102976 6.2442-.175528 5.3992-.18489 10.7985-.163819 16.1977-.079565 2.3755.037446 4.758.098286 7.1148.472747.3346.053832.6693.131062.9899.238722.3441.11468.5992.35106.5851.74658-.0117.36042-.2551.56871-.5687.70212-.578.2434-1.1959.29723-1.8067.36978-2.2562.26914-4.524.4119-6.7918.53828-3.8148.21298-7.632.42126-11.4492.6202-1.9729.10297-3.9458.19426-5.9188.26213-3.6088.12638-7.2154.28786-10.8196.50083-1.8231.10766-3.6486.18255-5.4718.27617-.1989.00936-.3978.03277-.5968.04915 0 .03979.0024.07723.0047.11702z" fill="#2f221b"/></svg>