<svg fill="none" height="2" viewBox="0 0 1430 2" width="1430" xmlns="http://www.w3.org/2000/svg"><g fill="#2f221b" fill-opacity=".3"><path d="m9.445.879193c-.59648-.352469-1.2728-.576904-1.96268-.644686-.83447-.042176-1.67046.049707-2.50493.078326-.80737.061757-1.62678.037657-2.42511.185272-.79079.15364-1.54544.472971-2.220249.911295.741089.32536 1.545439.52268 2.354309.56184.71398.03013 1.42494-.06326 2.13891-.09037 1.25473-.11599 2.57423.03464 3.75666-.47599.27866-.11598.54527-.25908.80284-.417235.0482-.04067.17172-.063264.06025-.106946z"/><path d="m26.1467.602044c-.6884-.275649-1.4265-.281674-2.1555-.280168-1.6057-.027113-2.9764-.058745-4.0715-.093389-1.2758-.106946-2.5802.069289-3.7129.692887.7456.491046 1.6057.810376 2.4898.926356.5965.0467 1.196.03917 1.794.06477.9475.02561 1.8949.04519 2.8424.06327.5754.00452 1.1508.03314 1.7262.01958.6371-.05875 1.2607-.25456 1.812-.57841h.0015c.0362-.01506.0422-.01808.0859-.01958h.0045c.0361.0015.0708.00753.1054.01657.0211.00602.0407.01355.0603.02108.0015-.01506.003-.02862.003-.04368 0-.478994-.6281-.625102-.9851-.790793z"/><path d="m40.9126.293251c-.5001-.0482-1.0047-.018075-1.5078-.025606-1.0107.009037-2.0229-.021088-3.0321.010544-.8872.08887-1.7578.366025-2.526.820921.6929.40971 1.4716.67481 2.2669.79079 1.068.09189 2.1465.01959 3.2189.04067.4655-.00452.9309.00904 1.3948-.00602.7893-.07381 1.5636-.35398 2.2037-.82544-.5889-.433808-1.2924-.704938-2.0169-.805859z"/><path d="m59.7846 1.07949c-.3449-.218407-.7155-.396147-1.1056-.513637-.5739-.201841-1.1794-.231967-1.7819-.221423-.6523-.006025-1.306-.018075-1.9582-.027113-.9444 0-1.8919-.052719-2.8363-.019581-.8706.079832-1.7277.34795-2.4583.832974.4112.20033.8451.34945 1.2834.47598-.0452-.01356-.0889-.02561-.1341-.03916.464.14611.9399.26359 1.4265.29673 1.3647.03615 2.7309.03465 4.0955.04368 1.0348.02712 2.1028.01959 3.0382-.48502.1747-.08736.3449-.18226.5076-.29221-.0256-.01657-.0497-.03314-.0753-.04971z"/><path d="m75.6894.879201c-.5965-.352469-1.2728-.576904-1.9627-.644687-.8345-.042175-1.6705.049708-2.5049.078327-.8074.061757-1.6268.037657-2.4251.185272-.7923.15364-1.5455.471464-2.2203.909787.7411.32536 1.5454.52268 2.3543.56184.714.03013 1.425-.06326 2.1389-.09037 1.2548-.11599 2.5743.03464 3.7567-.47599.2786-.11598.5453-.25907.8028-.417234.0482-.040669.1717-.063263.0603-.106945z"/><path d="m92.3911.602044c-.6884-.275649-1.4265-.281674-2.1555-.280168-1.6057-.027113-2.9764-.058745-4.0715-.093389-1.2758-.106946-2.5802.069289-3.713.692887.7456.491046 1.6057.810376 2.4899.926356.5965.0467 1.196.03917 1.794.06477.9474.02561 1.8949.04519 2.8423.06327.5754.00452 1.1508.03314 1.7262.01958.6372-.05875 1.2608-.25456 1.8121-.57841h.0015c.0361-.01506.0422-.01808.0858-.01958h.0046c.0361.0015.0708.00753.1054.01657.0211.00602.0407.01355.0603.02108.0015-.01506.003-.02862.003-.04368 0-.478994-.6282-.625102-.9851-.790793z"/><path d="m107.157.293259c-.5-.048201-1.005-.018075-1.508-.025607-1.01.009038-2.023-.021088-3.032.010544-.887.088871-1.758.366025-2.526.820924.693.4097 1.472.67481 2.267.79079 1.068.09188 2.146.01958 3.219.04067.465-.00452.931.00904 1.395-.00602.789-.07381 1.563-.35398 2.203-.82544-.589-.433811-1.292-.704941-2.016-.805861z"/><path d="m126.03 1.07949c-.345-.218407-.716-.396147-1.106-.513637-.574-.201841-1.179-.231967-1.782-.221423-.652-.006025-1.306-.018075-1.958-.027113-.945 0-1.892-.052719-2.836-.019581-.871.079832-1.728.34795-2.459.832974.412.20033.845.34945 1.284.47598-.046-.01356-.089-.02561-.134-.03916.464.14611.94.26359 1.426.29673 1.365.03615 2.731.03465 4.096.04368 1.034.02712 2.102.01959 3.038-.48502.174-.08736.345-.18226.507-.29221-.025-.01657-.049-.03314-.075-.04971z"/><path d="m206.132.293259c-.5-.048201-1.005-.018075-1.508-.025607-1.011.009038-2.023-.021088-3.032.010544-.887.088871-1.758.366025-2.526.820924.693.4097 1.471.67481 2.267.79079 1.068.09188 2.146.01958 3.219.04067.465-.00452.93.00904 1.394-.00602.79-.07381 1.564-.35398 2.204-.82544-.589-.433811-1.292-.704941-2.017-.805861z"/><path d="m141.934.879201c-.597-.352469-1.273-.576904-1.963-.644687-.834-.042175-1.67.049708-2.505.078327-.807.061757-1.627.037657-2.425.185272-.792.15364-1.545.471464-2.22.909787.741.32536 1.545.52268 2.354.56184.714.03013 1.425-.06326 2.139-.09037 1.255-.11599 2.574.03464 3.757-.47599.278-.11598.545-.25907.803-.417234.048-.040669.171-.063263.06-.106945z"/><path d="m158.634.602044c-.688-.275649-1.426-.281674-2.155-.280168-1.606-.027113-2.977-.058745-4.072-.093389-1.276-.106946-2.58.069289-3.713.692887.746.491046 1.606.810376 2.49.926356.597.0467 1.196.03917 1.794.06477.948.02561 1.895.04519 2.843.06327.575.00452 1.15.03314 1.726.01958.637-.05875 1.26-.25456 1.812-.57841h.001c.036-.01506.042-.01808.086-.01958h.005c.036.0015.07.00753.105.01657.021.00602.041.01355.06.02108.002-.01506.003-.02862.003-.04368 0-.478994-.628-.625102-.985-.790793z"/><path d="m173.401.293259c-.5-.048201-1.004-.018075-1.507-.025607-1.011.009038-2.023-.021088-3.033.010544-.887.088871-1.757.366025-2.526.820924.693.4097 1.472.67481 2.267.79079 1.068.09188 2.147.01958 3.219.04067.466-.00452.931.00904 1.395-.00602.789-.07381 1.564-.35398 2.204-.82544-.589-.433811-1.293-.704941-2.017-.805861z"/><path d="m192.274 1.07949c-.345-.218407-.716-.396147-1.106-.513637-.574-.201841-1.179-.231967-1.782-.221423-.652-.006025-1.306-.018075-1.958-.027113-.944 0-1.892-.052719-2.836-.019581-.871.079832-1.728.34795-2.458.832974.411.20033.845.34945 1.283.47598-.045-.01356-.089-.02561-.134-.03916.464.14611.94.26359 1.426.29673 1.365.03615 2.731.03465 4.096.04368 1.035.02712 2.103.01959 3.038-.48502.175-.08736.345-.18226.508-.29221-.026-.01657-.05-.03314-.076-.04971z"/><path d="m224.038.879193c-.596-.352469-1.273-.576904-1.963-.644686-.834-.042176-1.67.049707-2.504.078326-.808.061757-1.627.037657-2.426.185272-.792.15364-1.545.471464-2.22.909795.741.32535 1.546.52267 2.354.56184.714.03012 1.425-.06327 2.139-.09038 1.255-.11598 2.575.03464 3.757-.47598.279-.11599.545-.25908.803-.417242.048-.040669.172-.063263.06-.106945z"/><path d="m240.738.602044c-.688-.275649-1.426-.281674-2.155-.280168-1.606-.027113-2.977-.058745-4.072-.093389-1.276-.106946-2.58.069289-3.713.692887.746.491046 1.606.810376 2.49.926356.597.0467 1.196.03917 1.794.06477.947.02561 1.895.04519 2.842.06327.576.00452 1.151.03314 1.727.01958.637-.05875 1.26-.25456 1.812-.57841h.001c.036-.01506.042-.01808.086-.01958h.004c.037.0015.071.00753.106.01657.021.00602.041.01355.06.02108.002-.01506.003-.02862.003-.04368 0-.478994-.628-.625102-.985-.790793z"/><path d="m255.506.293251c-.5-.0482-1.005-.018075-1.508-.025606-1.011.009037-2.023-.021088-3.032.010544-.887.08887-1.758.366025-2.526.820921.693.40971 1.471.67481 2.267.79079 1.068.09189 2.146.01959 3.219.04067.465-.00452.931.00904 1.394-.00602.79-.07381 1.564-.35398 2.204-.82544-.589-.433808-1.292-.704938-2.017-.805859z"/><path d="m274.378 1.07949c-.345-.218407-.716-.396147-1.106-.513637-.574-.201841-1.179-.231967-1.782-.221423-.652-.006025-1.306-.018075-1.958-.027113-.944 0-1.892-.052719-2.836-.019581-.871.079832-1.728.34795-2.458.832974.411.20033.845.34945 1.283.47598-.045-.01356-.089-.02561-.134-.03916.464.14611.94.26359 1.426.29673 1.365.03615 2.731.03465 4.096.04368 1.035.02712 2.103.01959 3.038-.48502.175-.08736.345-.18226.508-.29221-.026-.01657-.05-.03314-.076-.04971z"/><path d="m290.283.879201c-.597-.352469-1.273-.576904-1.963-.644687-.835-.042175-1.671.049708-2.505.078327-.807.061757-1.627.037657-2.425.185272-.792.15364-1.546.471464-2.22.909787.741.32536 1.545.52268 2.354.56184.714.03013 1.425-.06326 2.139-.09037 1.255-.11599 2.574.03464 3.756-.47599.279-.11598.546-.25907.803-.417234.048-.040669.172-.063263.061-.106945z"/><path d="m306.982.602044c-.688-.275649-1.426-.281674-2.155-.280168-1.606-.027113-2.976-.058745-4.071-.093389-1.276-.106946-2.581.069289-3.713.692887.745.491046 1.605.810376 2.489.926356.597.0467 1.196.03917 1.794.06477.948.02561 1.895.04519 2.843.06327.575.00452 1.151.03314 1.726.01958.637-.05875 1.261-.25456 1.812-.57841h.001c.037-.01506.043-.01808.086-.01958h.005c.036.0015.071.00753.105.01657.021.00602.041.01355.061.02108.001-.01506.003-.02862.003-.04368 0-.478994-.629-.625102-.986-.790793z"/><path d="m321.749.293259c-.5-.048201-1.005-.018075-1.508-.025607-1.011.009038-2.023-.021088-3.032.010544-.887.088871-1.758.366025-2.526.820924.693.4097 1.472.67481 2.267.79079 1.068.09188 2.146.01958 3.219.04067.465-.00452.931.00904 1.395-.00602.789-.07381 1.563-.35398 2.203-.82544-.589-.433811-1.292-.704941-2.017-.805861z"/><path d="m340.622 1.07949c-.345-.218407-.715-.396147-1.105-.513637-.574-.201841-1.18-.231967-1.782-.221423-.653-.006025-1.306-.018075-1.959-.027113-.944 0-1.891-.052719-2.836-.019581-.871.079832-1.728.34795-2.458.832974.411.20033.845.34945 1.283.47598-.045-.01356-.089-.02561-.134-.03916.464.14611.94.26359 1.427.29673 1.364.03615 2.73.03465 4.095.04368 1.035.02712 2.103.01959 3.038-.48502.175-.08736.345-.18226.508-.29221-.026-.01657-.05-.03314-.075-.04971z"/><path d="m420.723.293251c-.5-.0482-1.005-.018075-1.508-.025606-1.01.009037-2.023-.021088-3.032.010544-.887.08887-1.758.366025-2.526.820921.693.40971 1.472.67481 2.267.79079 1.068.09189 2.147.01959 3.219.04067.465-.00452.931.00904 1.395-.00602.789-.07381 1.563-.35398 2.204-.82544-.589-.433808-1.293-.704938-2.017-.805859z"/><path d="m356.526.879193c-.597-.352469-1.273-.576904-1.963-.644686-.834-.042176-1.67.049707-2.505.078326-.807.061757-1.627.037657-2.425.185272-.792.15364-1.546.471464-2.22.909795.741.32535 1.545.52267 2.354.56184.714.03012 1.425-.06327 2.139-.09038 1.255-.11598 2.574.03464 3.757-.47598.278-.11599.545-.25908.802-.417242.049-.040669.172-.063263.061-.106945z"/><path d="m373.227.602044c-.688-.275649-1.426-.281674-2.155-.280168-1.606-.027113-2.976-.058745-4.072-.093389-1.275-.106946-2.58.069289-3.712.692887.745.491046 1.605.810376 2.489.926356.597.0467 1.196.03917 1.794.06477.948.02561 1.895.04519 2.843.06327.575.00452 1.15.03314 1.726.01958.637-.05875 1.261-.25456 1.812-.57841h.001c.037-.01506.043-.01808.086-.01958h.005c.036.0015.071.00753.105.01657.021.00602.041.01355.06.02108.002-.01506.003-.02862.003-.04368 0-.478994-.628-.625102-.985-.790793z"/><path d="m387.993.293251c-.5-.0482-1.004-.018075-1.508-.025606-1.01.009037-2.022-.021088-3.032.010544-.887.08887-1.757.366025-2.526.820921.693.40971 1.472.67481 2.267.79079 1.068.09189 2.147.01959 3.219.04067.466-.00452.931.00904 1.395-.00602.789-.07381 1.564-.35398 2.204-.82544-.589-.433808-1.293-.704938-2.017-.805859z"/><path d="m406.865 1.07953c-.345-.218413-.715-.396153-1.105-.513643-.574-.201841-1.18-.231966-1.782-.221422-.652-.006025-1.306-.018076-1.958-.027113-.945 0-1.892-.05272-2.837-.019582-.87.079833-1.727.34795-2.458.83297.411.20034.845.34946 1.284.47598-.046-.01355-.089-.0256-.135-.03916.464.14611.94.2636 1.427.29674 1.365.03615 2.731.03464 4.095.04368 1.035.02711 2.103.01958 3.039-.48502.174-.08737.345-.18226.507-.29222-.025-.01657-.049-.03314-.075-.04971z"/><path d="m469.426.293259c-.5-.048201-1.005-.018075-1.508-.025607-1.011.009038-2.023-.021088-3.032.010544-.887.088871-1.758.366025-2.526.820924.693.4097 1.471.67481 2.267.79079 1.068.09188 2.146.01958 3.219.04067.465-.00452.931.00904 1.395-.00602.789-.07381 1.563-.35398 2.203-.82544-.589-.433811-1.292-.704941-2.017-.805861z"/><path d="m436.695.293259c-.5-.048201-1.004-.018075-1.507-.025607-1.011.009038-2.023-.021088-3.032.010544-.888.088871-1.758.366025-2.526.820924.692.4097 1.471.67481 2.267.79079 1.067.09188 2.146.01958 3.218.04067.466-.00452.931.00904 1.395-.00602.789-.07381 1.564-.35398 2.204-.82544-.589-.433811-1.292-.704941-2.017-.805861z"/><path d="m455.568 1.07949c-.345-.218407-.715-.396147-1.106-.513637-.573-.201841-1.179-.231967-1.781-.221423-.653-.006025-1.306-.018075-1.959-.027113-.944 0-1.892-.052719-2.836-.019581-.871.079832-1.728.34795-2.458.832974.411.20033.845.34945 1.283.47598-.045-.01356-.089-.02561-.134-.03916.464.14611.94.26359 1.427.29673 1.364.03615 2.73.03465 4.095.04368 1.035.02712 2.103.01959 3.038-.48502.175-.08736.345-.18226.508-.29221-.026-.01657-.05-.03314-.075-.04971z"/><path d="m488.557.879193c-.596-.352469-1.273-.576904-1.963-.644686-.834-.042176-1.67.049707-2.504.078326-.808.061757-1.627.037657-2.426.185272-.79.15364-1.545.472971-2.22.911295.741.32536 1.546.52268 2.354.56184.714.03013 1.425-.06326 2.139-.09037 1.255-.11599 2.575.03464 3.757-.47599.279-.11598.545-.25908.803-.417235.048-.04067.172-.063264.06-.106946z"/><path d="m505.259.602044c-.689-.275649-1.427-.281674-2.156-.280168-1.605-.027113-2.976-.058745-4.071-.093389-1.276-.106946-2.58.069289-3.713.692887.746.491046 1.606.810376 2.49.926356.596.0467 1.196.03917 1.794.06477.947.02561 1.895.04519 2.842.06327.576.00452 1.151.03314 1.726.01958.637-.05875 1.261-.25456 1.812-.57841h.002c.036-.01506.042-.01808.086-.01958h.004c.036.0015.071.00753.106.01657.021.00602.04.01355.06.02108.001-.01506.003-.02862.003-.04368 0-.478994-.628-.625102-.985-.790793z"/><path d="m520.025.293251c-.5-.0482-1.005-.018075-1.508-.025606-1.011.009037-2.023-.021088-3.032.010544-.887.08887-1.758.366025-2.526.820921.693.40971 1.471.67481 2.267.79079 1.068.09189 2.146.01959 3.219.04067.465-.00452.931.00904 1.394-.00602.79-.07381 1.564-.35398 2.204-.82544-.589-.433808-1.292-.704938-2.017-.805859z"/><path d="m538.897 1.07949c-.345-.218407-.716-.396147-1.106-.513637-.574-.201841-1.179-.231967-1.782-.221423-.652-.006025-1.306-.018075-1.958-.027113-.944 0-1.892-.052719-2.836-.019581-.871.079832-1.728.34795-2.459.832974.412.20033.846.34945 1.284.47598-.045-.01356-.089-.02561-.134-.03916.464.14611.94.26359 1.426.29673 1.365.03615 2.731.03465 4.096.04368 1.035.02712 2.103.01959 3.038-.48502.175-.08736.345-.18226.508-.29221-.026-.01657-.05-.03314-.076-.04971z"/><path d="m554.802.879201c-.597-.352469-1.273-.576904-1.963-.644687-.835-.042175-1.671.049708-2.505.078327-.807.061757-1.627.037657-2.425.185272-.792.15364-1.546.471464-2.22.909787.741.32536 1.545.52268 2.354.56184.714.03013 1.425-.06326 2.139-.09037 1.254-.11599 2.574.03464 3.756-.47599.279-.11598.546-.25907.803-.417234.048-.040669.172-.063263.061-.106945z"/><path d="m571.503.602044c-.688-.275649-1.426-.281674-2.155-.280168-1.606-.027113-2.977-.058745-4.072-.093389-1.276-.106946-2.58.069289-3.713.692887.746.491046 1.606.810376 2.49.926356.597.0467 1.196.03917 1.794.06477.948.02561 1.895.04519 2.842.06327.576.00452 1.151.03314 1.727.01958.637-.05875 1.26-.25456 1.812-.57841h.001c.036-.01506.042-.01808.086-.01958h.005c.036.0015.07.00753.105.01657.021.00602.041.01355.06.02108.002-.01506.003-.02862.003-.04368 0-.478994-.628-.625102-.985-.790793z"/><path d="m586.269.293259c-.5-.048201-1.005-.018075-1.508-.025607-1.01.009038-2.023-.021088-3.032.010544-.887.088871-1.758.366025-2.526.820924.693.4097 1.472.67481 2.267.79079 1.068.09188 2.147.01958 3.219.04067.466-.00452.931.00904 1.395-.00602.789-.07381 1.563-.35398 2.204-.82544-.589-.433811-1.293-.704941-2.017-.805861z"/><path d="m605.142 1.07949c-.345-.218407-.716-.396147-1.106-.513637-.574-.201841-1.179-.231967-1.782-.221423-.652-.006025-1.306-.018075-1.958-.027113-.944 0-1.892-.052719-2.836-.019581-.871.079832-1.728.34795-2.459.832974.412.20033.845.34945 1.284.47598-.045-.01356-.089-.02561-.134-.03916.464.14611.94.26359 1.426.29673 1.365.03615 2.731.03465 4.096.04368 1.035.02712 2.103.01959 3.038-.48502.175-.08736.345-.18226.508-.29221-.026-.01657-.05-.03314-.076-.04971z"/><path d="m685.244.293259c-.5-.048201-1.005-.018075-1.508-.025607-1.011.009038-2.023-.021088-3.032.010544-.887.088871-1.758.366025-2.526.820924.693.4097 1.472.67481 2.267.79079 1.068.09188 2.146.01958 3.219.04067.465-.00452.931.00904 1.395-.00602.789-.07381 1.563-.35398 2.203-.82544-.589-.433811-1.292-.704941-2.017-.805861z"/><path d="m621.046.879201c-.597-.352469-1.273-.576904-1.963-.644687-.834-.042175-1.67.049708-2.505.078327-.807.061757-1.626.037657-2.425.185272-.792.15364-1.545.471464-2.22.909787.741.32536 1.545.52268 2.354.56184.714.03013 1.425-.06326 2.139-.09037 1.255-.11599 2.574.03464 3.757-.47599.278-.11598.545-.25907.803-.417234.048-.040669.171-.063263.06-.106945z"/><path d="m637.746.602044c-.688-.275649-1.426-.281674-2.155-.280168-1.606-.027113-2.976-.058745-4.072-.093389-1.275-.106946-2.58.069289-3.712.692887.745.491046 1.605.810376 2.489.926356.597.0467 1.196.03917 1.794.06477.948.02561 1.895.04519 2.843.06327.575.00452 1.15.03314 1.726.01958.637-.05875 1.261-.25456 1.812-.57841h.001c.037-.01506.043-.01808.086-.01958h.005c.036.0015.071.00753.105.01657.021.00602.041.01355.061.02108.001-.01506.003-.02862.003-.04368 0-.478994-.629-.625102-.986-.790793z"/><path d="m652.514.293259c-.501-.048201-1.005-.018075-1.508-.025607-1.011.009038-2.023-.021088-3.032.010544-.888.088871-1.758.366025-2.526.820924.692.4097 1.471.67481 2.267.79079 1.067.09188 2.146.01958 3.218.04067.466-.00452.931.00904 1.395-.00602.79-.07381 1.564-.35398 2.204-.82544-.589-.433811-1.292-.704941-2.017-.805861z"/><path d="m671.386 1.07949c-.345-.218407-.715-.396147-1.106-.513637-.573-.201841-1.179-.231967-1.781-.221423-.653-.006025-1.306-.018075-1.959-.027113-.944 0-1.891-.052719-2.836-.019581-.871.079832-1.728.34795-2.458.832974.411.20033.845.34945 1.283.47598-.045-.01356-.089-.02561-.134-.03916.464.14611.94.26359 1.427.29673 1.364.03615 2.73.03465 4.095.04368 1.035.02712 2.103.01959 3.038-.48502.175-.08736.345-.18226.508-.29221-.026-.01657-.05-.03314-.075-.04971z"/><path d="m703.15.879193c-.596-.352469-1.272-.576904-1.962-.644686-.835-.042176-1.671.049707-2.505.078326-.808.061757-1.627.037657-2.425.185272-.793.15364-1.546.471464-2.221.909795.741.32535 1.546.52267 2.355.56184.714.03012 1.425-.06327 2.139-.09038 1.254-.11598 2.574.03464 3.756-.47598.279-.11599.545-.25908.803-.417242.048-.040669.172-.063263.06-.106945z"/><path d="m719.85.602044c-.688-.275649-1.426-.281674-2.155-.280168-1.606-.027113-2.977-.058745-4.072-.093389-1.276-.106946-2.58.069289-3.713.692887.746.491046 1.606.810376 2.49.926356.597.0467 1.196.03917 1.794.06477.948.02561 1.895.04519 2.842.06327.576.00452 1.151.03314 1.727.01958.637-.05875 1.26-.25456 1.812-.57841h.001c.036-.01506.042-.01808.086-.01958h.005c.036.0015.07.00753.105.01657.021.00602.041.01355.06.02108.002-.01506.003-.02862.003-.04368 0-.478994-.628-.625102-.985-.790793z"/><path d="m734.618.293251c-.5-.0482-1.005-.018075-1.508-.025606-1.011.009037-2.023-.021088-3.032.010544-.887.08887-1.758.366025-2.526.820921.693.40971 1.472.67481 2.267.79079 1.068.09189 2.146.01959 3.219.04067.465-.00452.931.00904 1.395-.00602.789-.07381 1.563-.35398 2.203-.82544-.589-.433808-1.292-.704938-2.017-.805859z"/><path d="m753.49 1.07949c-.345-.218407-.716-.396147-1.106-.513637-.574-.201841-1.179-.231967-1.782-.221423-.652-.006025-1.306-.018075-1.958-.027113-.944 0-1.892-.052719-2.836-.019581-.871.079832-1.728.34795-2.458.832974.411.20033.845.34945 1.283.47598-.045-.01356-.089-.02561-.134-.03916.464.14611.94.26359 1.426.29673 1.365.03615 2.731.03465 4.096.04368 1.035.02712 2.103.01959 3.038-.48502.175-.08736.345-.18226.508-.29221-.026-.01657-.05-.03314-.076-.04971z"/><path d="m769.395.879201c-.597-.352469-1.273-.576904-1.963-.644687-.834-.042175-1.67.049708-2.505.078327-.807.061757-1.627.037657-2.425.185272-.792.15364-1.545.471464-2.22.909787.741.32536 1.545.52268 2.354.56184.714.03013 1.425-.06326 2.139-.09037 1.255-.11599 2.574.03464 3.757-.47599.278-.11598.545-.25907.802-.417234.049-.040669.172-.063263.061-.106945z"/><path d="m786.095.602044c-.689-.275649-1.427-.281674-2.156-.280168-1.606-.027113-2.976-.058745-4.071-.093389-1.276-.106946-2.581.069289-3.713.692887.745.491046 1.605.810376 2.49.926356.596.0467 1.196.03917 1.794.06477.947.02561 1.894.04519 2.842.06327.575.00452 1.151.03314 1.726.01958.637-.05875 1.261-.25456 1.812-.57841h.002c.036-.01506.042-.01808.085-.01958h.005c.036.0015.071.00753.105.01657.022.00602.041.01355.061.02108.001-.01506.003-.02862.003-.04368 0-.478994-.628-.625102-.985-.790793z"/><path d="m800.861.293259c-.5-.048201-1.005-.018075-1.508-.025607-1.01.009038-2.023-.021088-3.032.010544-.887.088871-1.758.366025-2.526.820924.693.4097 1.472.67481 2.267.79079 1.068.09188 2.147.01958 3.219.04067.465-.00452.931.00904 1.395-.00602.789-.07381 1.563-.35398 2.204-.82544-.589-.433811-1.293-.704941-2.017-.805861z"/><path d="m819.734 1.07949c-.345-.218407-.715-.396147-1.105-.513637-.574-.201841-1.18-.231967-1.782-.221423-.652-.006025-1.306-.018075-1.958-.027113-.945 0-1.892-.052719-2.837-.019581-.87.079832-1.727.34795-2.458.832974.411.20033.845.34945 1.283.47598-.045-.01356-.089-.02561-.134-.03916.464.14611.94.26359 1.427.29673 1.364.03615 2.731.03465 4.095.04368 1.035.02712 2.103.01959 3.038-.48502.175-.08736.345-.18226.508-.29221-.026-.01657-.05-.03314-.075-.04971z"/><path d="m899.835.293251c-.5-.0482-1.004-.018075-1.507-.025606-1.011.009037-2.023-.021088-3.033.010544-.887.08887-1.757.366025-2.526.820921.693.40971 1.472.67481 2.267.79079 1.068.09189 2.147.01959 3.219.04067.466-.00452.931.00904 1.395-.00602.789-.07381 1.564-.35398 2.204-.82544-.589-.433808-1.293-.704938-2.017-.805859z"/><path d="m835.638.879193c-.597-.352469-1.273-.576904-1.963-.644686-.834-.042176-1.67.049707-2.505.078326-.807.061757-1.627.037657-2.425.185272-.792.15364-1.545.471464-2.22.909795.741.32535 1.545.52267 2.354.56184.714.03012 1.425-.06327 2.139-.09038 1.255-.11598 2.574.03464 3.757-.47598.278-.11599.545-.25908.803-.417242.048-.040669.171-.063263.06-.106945z"/><path d="m852.34.602044c-.689-.275649-1.427-.281674-2.156-.280168-1.606-.027113-2.976-.058745-4.071-.093389-1.276-.106946-2.581.069289-3.713.692887.745.491046 1.605.810376 2.49.926356.596.0467 1.196.03917 1.793.06477.948.02561 1.895.04519 2.843.06327.575.00452 1.151.03314 1.726.01958.637-.05875 1.261-.25456 1.812-.57841h.002c.036-.01506.042-.01808.085-.01958h.005c.036.0015.071.00753.105.01657.021.00602.041.01355.061.02108.001-.01506.003-.02862.003-.04368 0-.478994-.628-.625102-.985-.790793z"/><path d="m867.105.293251c-.5-.0482-1.004-.018075-1.507-.025606-1.011.009037-2.023-.021088-3.032.010544-.888.08887-1.758.366025-2.527.820921.693.40971 1.472.67481 2.267.79079 1.068.09189 2.147.01959 3.219.04067.466-.00452.931.00904 1.395-.00602.789-.07381 1.564-.35398 2.204-.82544-.589-.433808-1.293-.704938-2.017-.805859z"/><path d="m885.978 1.07953c-.345-.218413-.716-.396153-1.106-.513643-.574-.201841-1.179-.231966-1.782-.221422-.652-.006025-1.306-.018076-1.958-.027113-.945 0-1.892-.05272-2.836-.019582-.871.079833-1.728.34795-2.459.83297.412.20034.845.34946 1.284.47598-.045-.01355-.089-.0256-.134-.03916.464.14611.94.2636 1.426.29674 1.365.03615 2.731.03464 4.096.04368 1.034.02711 2.102.01958 3.038-.48502.174-.08737.345-.18226.507-.29222-.025-.01657-.049-.03314-.075-.04971z"/><path d="m948.538.293259c-.5-.048201-1.005-.018075-1.508-.025607-1.011.009038-2.023-.021088-3.032.010544-.887.088871-1.758.366025-2.526.820924.693.4097 1.472.67481 2.267.79079 1.068.09188 2.146.01958 3.219.04067.465-.00452.931.00904 1.395-.00602.789-.07381 1.563-.35398 2.203-.82544-.589-.433811-1.292-.704941-2.017-.805861z"/><path d="m915.808.293259c-.5-.048201-1.005-.018075-1.508-.025607-1.011.009038-2.023-.021088-3.032.010544-.888.088871-1.758.366025-2.526.820924.693.4097 1.471.67481 2.267.79079 1.068.09188 2.146.01958 3.219.04067.465-.00452.93.00904 1.394-.00602.79-.07381 1.564-.35398 2.204-.82544-.589-.433811-1.292-.704941-2.017-.805861z"/><path d="m934.68 1.07949c-.345-.218407-.715-.396147-1.105-.513637-.574-.201841-1.18-.231967-1.782-.221423-.652-.006025-1.306-.018075-1.958-.027113-.945 0-1.892-.052719-2.837-.019581-.87.079832-1.728.34795-2.458.832974.411.20033.845.34945 1.283.47598-.045-.01356-.089-.02561-.134-.03916.464.14611.94.26359 1.427.29673 1.364.03615 2.731.03465 4.095.04368 1.035.02712 2.103.01959 3.038-.48502.175-.08736.345-.18226.508-.29221-.026-.01657-.05-.03314-.075-.04971z"/><path d="m967.669.879193c-.596-.352469-1.273-.576904-1.962-.644686-.835-.042176-1.671.049707-2.505.078326-.808.061757-1.627.037657-2.425.185272-.791.15364-1.546.472971-2.221.911295.741.32536 1.546.52268 2.355.56184.714.03013 1.425-.06326 2.139-.09037 1.254-.11599 2.574.03464 3.756-.47599.279-.11598.546-.25908.803-.417235.048-.04067.172-.063264.06-.106946z"/><path d="m984.371.602044c-.688-.275649-1.426-.281674-2.155-.280168-1.606-.027113-2.977-.058745-4.072-.093389-1.276-.106946-2.58.069289-3.713.692887.746.491046 1.606.810376 2.49.926356.596.0467 1.196.03917 1.794.06477.947.02561 1.895.04519 2.842.06327.576.00452 1.151.03314 1.726.01958.638-.05875 1.261-.25456 1.813-.57841h.001c.036-.01506.042-.01808.086-.01958h.004c.037.0015.071.00753.106.01657.021.00602.04.01355.06.02108.002-.01506.003-.02862.003-.04368 0-.478994-.628-.625102-.985-.790793z"/><path d="m999.137.293251c-.5-.0482-1.005-.018075-1.508-.025606-1.011.009037-2.023-.021088-3.032.010544-.887.08887-1.758.366025-2.526.820921.693.40971 1.472.67481 2.267.79079 1.068.09189 2.146.01959 3.219.04067.465-.00452.931.00904 1.395-.00602.789-.07381 1.568-.35398 2.208-.82544-.59-.433808-1.297-.704938-2.022-.805859z"/><path d="m1018.01 1.07949c-.35-.218407-.72-.396147-1.11-.513637-.57-.201841-1.18-.231967-1.78-.221423-.65-.006025-1.3-.018075-1.96-.027113-.94 0-1.89-.052719-2.83-.019581-.87.079832-1.73.34795-2.46.832974.41.20033.84.34945 1.28.47598-.04-.01356-.09-.02561-.13-.03916.46.14611.94.26359 1.42.29673 1.37.03615 2.74.03465 4.1.04368 1.03.02712 2.1.01959 3.04-.48502.17-.08736.34-.18226.51-.29221-.03-.01657-.05-.03314-.08-.04971z"/><path d="m1033.91.879201c-.59-.352469-1.27-.576904-1.96-.644687-.83-.042175-1.67.049708-2.5.078327-.81.061757-1.63.037657-2.43.185272-.79.15364-1.54.471464-2.22.909787.74.32536 1.55.52268 2.36.56184.71.03013 1.42-.06326 2.13-.09037 1.26-.11599 2.58.03464 3.76-.47599.28-.11598.55-.25907.8-.417234.05-.040669.18-.063263.06-.106945z"/><path d="m1050.62.602044c-.69-.275649-1.43-.281674-2.16-.280168-1.61-.027113-2.98-.058745-4.07-.093389-1.28-.106946-2.58.069289-3.71.692887.74.491046 1.6.810376 2.49.926356.59.0467 1.19.03917 1.79.06477.95.02561 1.89.04519 2.84.06327.58.00452 1.15.03314 1.73.01958.64-.05875 1.26-.25456 1.81-.57841.04-.01506.04-.01808.09-.01958-.01 0-.01 0 0 0 .04.0015.07.00753.11.01657.02.00602.04.01355.06.02108 0-.01506 0-.02862 0-.04368 0-.478994-.63-.625102-.98-.790793z"/><path d="m1065.38.293259c-.5-.048201-1-.018075-1.51-.025607-1.01.009038-2.02-.021088-3.03.010544-.89.088871-1.76.366025-2.52.820924.69.4097 1.47.67481 2.26.79079 1.07.09188 2.15.01958 3.22.04067.47-.00452.93.00904 1.4-.00602.79-.07381 1.56-.35398 2.2-.82544-.59-.433811-1.29-.704941-2.02-.805861z"/><path d="m1084.25 1.07949c-.34-.218407-.71-.396147-1.1-.513637-.58-.201841-1.18-.231967-1.78-.221423-.66-.006025-1.31-.018075-1.96-.027113-.95 0-1.89-.052719-2.84-.019581-.87.079832-1.73.34795-2.46.832974.41.20033.85.34945 1.29.47598-.05-.01356-.09-.02561-.14-.03916.47.14611.94.26359 1.43.29673 1.36.03615 2.73.03465 4.09.04368 1.04.02712 2.11.01959 3.04-.48502.18-.08736.35-.18226.51-.29221-.02-.01657-.05-.03314-.07-.04971z"/><path d="m1164.36.293259c-.5-.048201-1.01-.018075-1.51-.025607-1.01.009038-2.02-.021088-3.03.010544-.89.088871-1.76.366025-2.53.820924.69.4097 1.47.67481 2.27.79079 1.06.09188 2.14.01958 3.22.04067.46-.00452.93.00904 1.39-.00602.79-.07381 1.56-.35398 2.2-.82544-.58-.433811-1.29-.704941-2.01-.805861z"/><path d="m1100.16.879201c-.6-.352469-1.27-.576904-1.96-.644687-.84-.042175-1.68.049708-2.51.078327-.81.061757-1.63.037657-2.42.185272-.8.15364-1.55.471464-2.22.909787.74.32536 1.54.52268 2.35.56184.71.03013 1.42-.06326 2.14-.09037 1.25-.11599 2.57.03464 3.75-.47599.28-.11598.55-.25907.81-.417234.05-.040669.17-.063263.06-.106945z"/><path d="m1116.86.602044c-.69-.275649-1.43-.281674-2.16-.280168-1.6-.027113-2.97-.058745-4.07-.093389-1.27-.106946-2.58.069289-3.71.692887.74.491046 1.6.810376 2.49.926356.59.0467 1.19.03917 1.79.06477.95.02561 1.9.04519 2.84.06327.58.00452 1.16.03314 1.73.01958.64-.05875 1.26-.25456 1.81-.57841.04-.01506.05-.01808.09-.01958-.01 0-.01 0 0 0 .04.0015.08.00753.11.01657.02.00602.04.01355.06.02108 0-.01506 0-.02862 0-.04368 0-.478994-.62-.625102-.98-.790793z"/><path d="m1131.63.293259c-.5-.048201-1.01-.018075-1.51-.025607-1.01.009038-2.03-.021088-3.03.010544-.89.088871-1.76.366025-2.53.820924.69.4097 1.47.67481 2.27.79079 1.06.09188 2.14.01958 3.22.04067.46-.00452.93.00904 1.39-.00602.79-.07381 1.56-.35398 2.2-.82544-.58-.433811-1.29-.704941-2.01-.805861z"/><path d="m1150.5 1.07949c-.35-.218407-.72-.396147-1.11-.513637-.57-.201841-1.18-.231967-1.78-.221423-.65-.006025-1.31-.018075-1.96-.027113-.94 0-1.89-.052719-2.83-.019581-.87.079832-1.73.34795-2.46.832974.41.20033.84.34945 1.28.47598-.04-.01356-.09-.02561-.13-.03916.46.14611.94.26359 1.42.29673 1.37.03615 2.73.03465 4.1.04368 1.03.02712 2.1.01959 3.04-.48502.17-.08736.34-.18226.51-.29221-.03-.01657-.05-.03314-.08-.04971z"/><path d="m1182.26.879193c-.59-.352469-1.27-.576904-1.96-.644686-.83-.042176-1.67.049707-2.51.078326-.8.061757-1.62.037657-2.42.185272-.79.15364-1.55.471464-2.22.909795.74.32535 1.54.52267 2.35.56184.72.03012 1.43-.06327 2.14-.09038 1.26-.11598 2.58.03464 3.76-.47598.28-.11599.54-.25908.8-.417242.05-.040669.17-.063263.06-.106945z"/><path d="m1198.96.602044c-.69-.275649-1.42-.281674-2.15-.280168-1.61-.027113-2.98-.058745-4.07-.093389-1.28-.106946-2.58.069289-3.72.692887.75.491046 1.61.810376 2.49.926356.6.0467 1.2.03917 1.8.06477.94.02561 1.89.04519 2.84.06327.57.00452 1.15.03314 1.72.01958.64-.05875 1.27-.25456 1.82-.57841.03-.01506.04-.01808.08-.01958h.01c.03.0015.07.00753.1.01657.03.00602.04.01355.06.02108.01-.01506.01-.02862.01-.04368 0-.478994-.63-.625102-.99-.790793z"/><path d="m1213.73.293251c-.5-.0482-1-.018075-1.51-.025606-1.01.009037-2.02-.021088-3.03.010544-.89.08887-1.76.366025-2.53.820921.7.40971 1.48.67481 2.27.79079 1.07.09189 2.15.01959 3.22.04067.47-.00452.93.00904 1.39-.00602.79-.07381 1.57-.35398 2.21-.82544-.59-.433808-1.29-.704938-2.02-.805859z"/><path d="m1232.6 1.07949c-.34-.218407-.71-.396147-1.1-.513637-.58-.201841-1.18-.231967-1.79-.221423-.65-.006025-1.3-.018075-1.95-.027113-.95 0-1.9-.052719-2.84-.019581-.87.079832-1.73.34795-2.46.832974.41.20033.85.34945 1.29.47598-.05-.01356-.09-.02561-.14-.03916.47.14611.94.26359 1.43.29673 1.36.03615 2.73.03465 4.09.04368 1.04.02712 2.11.01959 3.04-.48502.18-.08736.35-.18226.51-.29221-.03-.01657-.05-.03314-.08-.04971z"/><path d="m1248.51.879201c-.6-.352469-1.28-.576904-1.97-.644687-.83-.042175-1.67.049708-2.5.078327-.81.061757-1.63.037657-2.43.185272-.79.15364-1.54.471464-2.22.909787.74.32536 1.55.52268 2.36.56184.71.03013 1.42-.06326 2.14-.09037 1.25-.11599 2.57.03464 3.75-.47599.28-.11598.55-.25907.81-.417234.04-.040669.17-.063263.06-.106945z"/><path d="m1265.21.602044c-.69-.275649-1.43-.281674-2.16-.280168-1.6-.027113-2.98-.058745-4.07-.093389-1.28-.106946-2.58.069289-3.71.692887.74.491046 1.6.810376 2.49.926356.59.0467 1.19.03917 1.79.06477.95.02561 1.9.04519 2.84.06327.58.00452 1.15.03314 1.73.01958.64-.05875 1.26-.25456 1.81-.57841.04-.01506.04-.01808.09-.01958-.01 0-.01 0 0 0 .04.0015.07.00753.11.01657.02.00602.04.01355.06.02108 0-.01506 0-.02862 0-.04368 0-.478994-.63-.625102-.98-.790793z"/><path d="m1279.97.293259c-.5-.048201-1-.018075-1.5-.025607-1.02.009038-2.03-.021088-3.04.010544-.88.088871-1.75.366025-2.52.820924.69.4097 1.47.67481 2.26.79079 1.07.09188 2.15.01958 3.22.04067.47-.00452.93.00904 1.4-.00602.79-.07381 1.56-.35398 2.2-.82544-.59-.433811-1.29-.704941-2.02-.805861z"/><path d="m1298.85 1.07949c-.35-.218407-.72-.396147-1.11-.513637-.57-.201841-1.18-.231967-1.78-.221423-.65-.006025-1.31-.018075-1.96-.027113-.94 0-1.89-.052719-2.84-.019581-.87.079832-1.72.34795-2.45.832974.41.20033.84.34945 1.28.47598-.05-.01356-.09-.02561-.13-.03916.46.14611.94.26359 1.42.29673 1.37.03615 2.73.03465 4.1.04368 1.03.02712 2.1.01959 3.04-.48502.17-.08736.34-.18226.5-.29221-.02-.01657-.05-.03314-.07-.04971z"/><path d="m1378.95.293251c-.5-.0482-1.01-.018075-1.51-.025606-1.01.009037-2.02-.021088-3.03.010544-.89.08887-1.76.366025-2.53.820921.69.40971 1.47.67481 2.27.79079 1.07.09189 2.14.01959 3.22.04067.46-.00452.93.00904 1.39-.00602.79-.07381 1.57-.35398 2.21-.82544-.59-.433808-1.3-.704938-2.02-.805859z"/><path d="m1314.75.879193c-.6-.352469-1.27-.576904-1.96-.644686-.84-.042176-1.67.049707-2.51.078326-.81.061757-1.62.037657-2.42.185272-.8.15364-1.55.471464-2.22.909795.74.32535 1.54.52267 2.35.56184.72.03012 1.43-.06327 2.14-.09038 1.26-.11598 2.57.03464 3.76-.47598.28-.11599.54-.25908.8-.417242.05-.040669.17-.063263.06-.106945z"/><path d="m1331.45.602044c-.69-.275649-1.42-.281674-2.15-.280168-1.61-.027113-2.98-.058745-4.08-.093389-1.27-.106946-2.58.069289-3.71.692887.75.491046 1.61.810376 2.49.926356.6.0467 1.2.03917 1.8.06477.94.02561 1.89.04519 2.84.06327.57.00452 1.15.03314 1.72.01958.64-.05875 1.26-.25456 1.82-.57841.03-.01506.04-.01808.08-.01958h.01c.03.0015.07.00753.1.01657.02.00602.04.01355.06.02108.01-.01506.01-.02862.01-.04368 0-.478994-.63-.625102-.99-.790793z"/><path d="m1346.22.293251c-.5-.0482-1.01-.018075-1.51-.025606-1.01.009037-2.02-.021088-3.03.010544-.89.08887-1.76.366025-2.53.820921.69.40971 1.47.67481 2.27.79079 1.07.09189 2.14.01959 3.22.04067.46-.00452.93.00904 1.39-.00602.79-.07381 1.57-.35398 2.21-.82544-.59-.433808-1.3-.704938-2.02-.805859z"/><path d="m1365.09 1.07953c-.35-.218413-.72-.396153-1.11-.513643-.57-.201841-1.18-.231966-1.78-.221422-.65-.006025-1.3-.018076-1.96-.027113-.94 0-1.89-.05272-2.83-.019582-.87.079833-1.73.34795-2.46.83297.41.20034.84.34946 1.28.47598-.04-.01355-.09-.0256-.13-.03916.46.14611.94.2636 1.43.29674 1.36.03615 2.73.03464 4.09.04368 1.04.02711 2.1.01958 3.04-.48502.17-.08737.34-.18226.51-.29222-.03-.01657-.05-.03314-.08-.04971z"/><path d="m1427.65.293259c-.5-.048201-1-.018075-1.51-.025607-1.01.009038-2.02-.021088-3.03.010544-.89.088871-1.76.366025-2.53.820924.7.4097 1.48.67481 2.27.79079 1.07.09188 2.15.01958 3.22.04067.47-.00452.93.00904 1.39-.00602.79-.07381 1.57-.35398 2.21-.82544-.59-.433811-1.29-.704941-2.02-.805861z"/><path d="m1394.92.293259c-.5-.048201-1-.018075-1.51-.025607-1.01.009038-2.02-.021088-3.03.010544-.89.088871-1.76.366025-2.53.820924.7.4097 1.48.67481 2.27.79079 1.07.09188 2.15.01958 3.22.04067.47-.00452.93.00904 1.39-.00602.79-.07381 1.57-.35398 2.21-.82544-.59-.433811-1.29-.704941-2.02-.805861z"/><path d="m1413.79 1.07949c-.34-.218407-.71-.396147-1.1-.513637-.58-.201841-1.18-.231967-1.79-.221423-.65-.006025-1.3-.018075-1.95-.027113-.95 0-1.9-.052719-2.84-.019581-.87.079832-1.73.34795-2.46.832974.41.20033.85.34945 1.29.47598-.05-.01356-.09-.02561-.14-.03916.47.14611.94.26359 1.43.29673 1.36.03615 2.73.03465 4.09.04368 1.04.02712 2.11.01959 3.04-.48502.18-.08736.35-.18226.51-.29221-.03-.01657-.05-.03314-.08-.04971z"/></g></svg>