<svg fill="none" height="35" viewBox="0 0 247 35" width="247" xmlns="http://www.w3.org/2000/svg"><g fill="#2f221b"><path d="m246.225 2.104c-.128 3.96801-.192 8.1173-.192 12.448 0 4.288.064 8.4373.192 12.448h-7.232l.096-3.84c-.619 1.4293-1.515 2.4853-2.688 3.168-1.174.6613-2.56.992-4.16.992-1.387 0-2.635-.3947-3.744-1.184-1.11-.7893-1.974-1.856-2.592-3.2-.619-1.3653-.928-2.8587-.928-4.48 0-1.6.309-3.104.928-4.512.618-1.4293 1.482-2.5707 2.592-3.424 1.13-.87466 2.41-1.312 3.84-1.312 1.664 0 3.082.352 4.256 1.056 1.194.6827 2.08 1.7493 2.656 3.2 0-1.216-.043-3.168-.128-5.85599-.086-2.60267-.128-4.43734-.128-5.50401zm-10.624 19.84c1.045 0 1.898-.288 2.56-.864.661-.5973.992-1.536.992-2.816 0-1.1307-.331-1.9627-.992-2.496-.662-.5333-1.494-.8-2.496-.8-.96 0-1.771.3093-2.432.928-.64.5973-.96 1.3867-.96 2.368 0 1.088.298 1.9733.896 2.656.597.6827 1.408 1.024 2.432 1.024z"/><path d="m208.605 19c.171.9387.587 1.7067 1.248 2.304.683.576 1.643.864 2.88.864.896 0 1.739-.1707 2.528-.512.789-.3627 1.419-.864 1.888-1.504 1.429.704 3.328 1.4613 5.696 2.272-.661 1.4933-1.867 2.688-3.616 3.584-1.728.8747-3.989 1.312-6.784 1.312-3.627 0-6.315-.832-8.064-2.496-1.728-1.6853-2.592-3.8933-2.592-6.624 0-2.6667.864-4.832 2.592-6.496s4.416-2.49599 8.064-2.49599c2.176 0 4.064.36266 5.664 1.08799 1.6.7253 2.827 1.7387 3.68 3.04.853 1.28 1.28 2.752 1.28 4.416 0 .5547-.021.9707-.064 1.248zm4.288-4.96c-1.067 0-1.941.2027-2.624.608s-1.163.96-1.44 1.664h7.552c-.256-.6827-.672-1.2267-1.248-1.632-.576-.4267-1.323-.64-2.24-.64z"/><path d="m199.537 2.104c-.128 3.96801-.192 8.1173-.192 12.448 0 4.288.064 8.4373.192 12.448h-7.232l.096-3.84c-.619 1.4293-1.515 2.4853-2.688 3.168-1.173.6613-2.56.992-4.16.992-1.387 0-2.635-.3947-3.744-1.184s-1.973-1.856-2.592-3.2c-.619-1.3653-.928-2.8587-.928-4.48 0-1.6.309-3.104.928-4.512.619-1.4293 1.483-2.5707 2.592-3.424 1.131-.87466 2.411-1.312 3.84-1.312 1.664 0 3.083.352 4.256 1.056 1.195.6827 2.08 1.7493 2.656 3.2 0-1.216-.043-3.168-.128-5.85599-.085-2.60267-.128-4.43734-.128-5.50401zm-10.624 19.84c1.045 0 1.899-.288 2.56-.864.661-.5973.992-1.536.992-2.816 0-1.1307-.331-1.9627-.992-2.496s-1.493-.8-2.496-.8c-.96 0-1.771.3093-2.432.928-.64.5973-.96 1.3867-.96 2.368 0 1.088.299 1.9733.896 2.656s1.408 1.024 2.432 1.024z"/><path d="m171.773 7.63994c-1.344 0-2.347-.33066-3.008-.992-.64-.66133-.96-1.52533-.96-2.592 0-1.04533.32-1.90933.96-2.592.661-.682665 1.664-1.023999 3.008-1.023999 1.28 0 2.261.352 2.944 1.055999.682.68267 1.024 1.536 1.024 2.56 0 1.06667-.331 1.93067-.992 2.592-.662.66134-1.654.992-2.976.992zm-3.712 19.35996c.149-3.4346.224-6.272.224-8.512 0-2.6666-.086-5.6533-.256-8.95996h7.68c-.171 3.17866-.256 6.16536-.256 8.95996 0 2.3467.074 5.184.224 8.512z"/><path d="m164.914 9.52783c-.149 2.68797-.224 5.58937-.224 8.70397 0 3.136.075 6.0587.224 8.768-1.365-.064-2.442-.096-3.232-.096-.746 0-1.824.032-3.232.096l-.928-4.704c-.49 1.7067-1.258 2.976-2.304 3.808-1.045.8107-2.261 1.216-3.648 1.216-1.28 0-2.389-.2773-3.328-.832-.938-.576-1.653-1.344-2.144-2.304-.469-.96-.704-2.0373-.704-3.232v-4.608c0-2.8373-.053-5.1093-.16-6.81597h7.2c-.128 3.13597-.192 6.23997-.192 9.31197 0 .9387.224 1.6854.672 2.24.47.5547 1.056.832 1.76.832.662 0 1.238-.288 1.728-.864.512-.5973.822-1.408.928-2.432v-.736c.043-1.664.064-2.816.064-3.456 0-1.472-.042-3.104-.128-4.89597z"/><path d="m129.012 13.7522h13.664v13.248h-5.632l-.672-5.664c-.64 2.0267-1.781 3.5307-3.424 4.512s-3.648 1.472-6.016 1.472c-2.155 0-4.075-.48-5.76-1.44-1.664-.96-2.976-2.336-3.936-4.128-.939-1.792-1.408-3.8827-1.408-6.272 0-3.8187 1.141-6.83734 3.424-9.05601 2.283-2.21866 5.835-3.328 10.656-3.328 2.752 0 5.173.448 7.264 1.344 2.112.896 3.904 2.28267 5.376 4.16-.96.49067-2.837 1.47201-5.632 2.94401l-.8.448c-.832-.832-1.803-1.4507-2.912-1.856-1.109-.42668-2.283-.64001-3.52-.64001-2.048 0-3.573.54401-4.576 1.63201-1.003 1.0667-1.504 2.3893-1.504 3.968 0 1.7067.533 3.0827 1.6 4.128 1.088 1.0453 2.741 1.568 4.96 1.568.96 0 1.888-.1387 2.784-.416.917-.2773 1.685-.7573 2.304-1.44h-6.24z"/><path d="m106.69 14.2641c.896-3.2213 3.125-4.83197 6.688-4.83197.618 0 1.216.04267 1.792.128l-1.024 7.16797c-1.536-.576-2.795-.864-3.776-.864-1.216 0-2.112.3627-2.688 1.088-.576.7254-.864 1.696-.864 2.912v-.032l-.032 2.112c0 1.5147.042 3.2.128 5.056h-7.6484c.1707-3.072.256-5.9733.256-8.704 0-2.7306-.0853-5.6533-.256-8.76797 1.4084.064 2.4854.096 3.2324.096.789 0 1.866-.032 3.232-.096z"/><path d="m82.5738 19c.1707.9387.5867 1.7067 1.248 2.304.6827.576 1.6427.864 2.88.864.896 0 1.7387-.1707 2.528-.512.7893-.3627 1.4187-.864 1.888-1.504 1.4293.704 3.328 1.4613 5.696 2.272-.6613 1.4933-1.8667 2.688-3.616 3.584-1.728.8747-3.9893 1.312-6.784 1.312-3.6267 0-6.3147-.832-8.064-2.496-1.728-1.6853-2.592-3.8933-2.592-6.624 0-2.6667.864-4.832 2.592-6.496s4.416-2.49599 8.064-2.49599c2.176 0 4.064.36266 5.664 1.08799 1.6.7253 2.8267 1.7387 3.68 3.04.8533 1.28 1.28 2.752 1.28 4.416 0 .5547-.0213.9707-.064 1.248zm4.288-4.96c-1.0666 0-1.9413.2027-2.624.608s-1.1627.96-1.44 1.664h7.552c-.256-.6827-.672-1.2267-1.248-1.632-.576-.4267-1.3226-.64-2.24-.64z"/><path d="m66.5621 9.20801c1.3867 0 2.6347.39466 3.744 1.18399 1.1094.7893 1.9734 1.8667 2.592 3.232.6187 1.344.928 2.8267.928 4.448 0 1.6-.3093 3.1147-.928 4.544-.6186 1.408-1.4933 2.5493-2.624 3.424-1.1093.8533-2.3786 1.28-3.808 1.28-1.664 0-3.0933-.3413-4.288-1.024-1.1733-.704-2.048-1.7813-2.624-3.232 0 1.216.0427 3.168.128 5.856.0854 2.6027.128 4.4373.128 5.504h-7.232c.128-3.968.192-8.1173.192-12.448s-.064-8.48-.192-12.44799h6.144l.928 3.99999c.5974-1.4933 1.4934-2.5813 2.688-3.264 1.1947-.70399 2.6027-1.05599 4.224-1.05599zm-3.424 12.35199c.96 0 1.76-.2987 2.4-.896.6614-.6187.992-1.4187.992-2.4 0-1.088-.2986-1.9733-.896-2.656-.5973-.6827-1.408-1.024-2.432-1.024-1.1733 0-2.0586.288-2.656.864-.5973.5547-.896 1.4933-.896 2.816 0 .7467.192 1.376.576 1.888.384.4907.8427.8533 1.376 1.088.5334.2133 1.0454.32 1.536.32z"/><path d="m50.0081 9.52783c-.1493 2.68797-.224 5.58937-.224 8.70397 0 3.136.0747 6.0587.224 8.768-1.3653-.064-2.4426-.096-3.232-.096-.7466 0-1.824.032-3.232.096l-.928-4.704c-.4906 1.7067-1.2586 2.976-2.304 3.808-1.0453.8107-2.2613 1.216-3.648 1.216-1.28 0-2.3893-.2773-3.328-.832-.9386-.576-1.6533-1.344-2.144-2.304-.4693-.96-.704-2.0373-.704-3.232v-4.608c0-2.8373-.0533-5.1093-.16-6.81597h7.2c-.128 3.13597-.192 6.23997-.192 9.31197 0 .9387.224 1.6854.672 2.24.4694.5547 1.056.832 1.76.832.6614 0 1.2374-.288 1.728-.864.512-.5973.8214-1.408.928-2.432v-.736c.0427-1.664.064-2.816.064-3.456 0-1.472-.0426-3.104-.128-4.89597z"/><path d="m.765625 24.2479c.725335-1.088 1.322665-2.1013 1.791995-3.04.49067-.9386.96-2.0266 1.408-3.264 1.51467.8747 3.27467 1.5574 5.28001 2.048 2.00537.4907 3.87197.736 5.59997.736 1.7707 0 3.0187-.1493 3.744-.448.7254-.32 1.088-.6613 1.088-1.024 0-1.3013-1.984-1.952-5.952-1.952-4.35197 0-7.50931-.448-9.47198-1.344-1.96266-.9173-2.94399-2.3893-2.94399-4.416 0-2.87997 1.19466-5.00264 3.584-6.36797 2.38933-1.36533 5.49337-2.048 9.31197-2.048 2.2187 0 4.4907.288 6.816.864 2.3467.55467 4.4587 1.32267 6.336 2.304-.6186 1.408-1.2693 3.12533-1.952 5.15197-.128.4267-.2346.7467-.32.96-1.088-.8746-2.7306-1.6-4.928-2.176-2.1973-.5973-4.1386-.89597-5.824-.89597-2.0266 0-3.392.13867-4.096.416-.70397.25597-1.05597.63997-1.05597 1.15197s.48.928 1.43997 1.248c.9814.2987 2.3894.448 4.224.448 4.5227 0 7.808.5227 9.856 1.568 2.048 1.024 3.072 2.6027 3.072 4.736 0 2.9867-1.088 5.1414-3.264 6.464-2.176 1.3014-5.472 1.952-9.888 1.952-2.368 0-4.77864-.256-7.23197-.768-2.45334-.5333-4.66134-1.3013-6.624005-2.304z"/></g></svg>