<svg xmlns="http://www.w3.org/2000/svg" version="1.1" xmlns:xlink="http://www.w3.org/1999/xlink" xmlns:svgjs="http://svgjs.dev/svgjs" width="50" height="51"><svg fill="none" height="51" viewBox="0 0 50 51" width="50" xmlns="http://www.w3.org/2000/svg"><path clip-rule="evenodd" d="m25 50.5996c13.8071 0 25-11.1929 25-25s-11.1929-24.999991-25-24.999991-25 11.192891-25 24.999991 11.1929 25 25 25zm-12.0629-19.2537c-.4951.9926-1.1251 2.0641-1.8902 3.2146 2.0702 1.0603 4.3992 1.8724 6.9871 2.4363 2.5878.5414 5.1306.8121 7.6284.8121 4.658 0 8.1347-.688 10.4299-2.0641 2.2953-1.3986 3.4429-3.677 3.4429-6.8352 0-2.2559-1.0801-3.9252-3.2403-5.008-2.1603-1.1054-5.6257-1.6581-10.3963-1.6581-1.9352 0-3.4204-.1579-4.4555-.4737-1.0126-.3384-1.5189-.7783-1.5189-1.3197s.3713-.9474 1.1139-1.2181c.7425-.2933 2.1827-.4399 4.3205-.4399 1.7777 0 3.8254.3158 6.1432.9474 2.3178.6091 4.0505 1.3761 5.1981 2.301.09-.2256.2025-.564.3376-1.0151.72-2.1431 1.4064-3.9591 2.0589-5.4479-1.9802-1.0377-4.208-1.8498-6.6832-2.4363-2.4528-.6091-4.8494-.9137-7.1896-.9137-4.028 0-7.3022.7219-9.8225 2.1657-2.5203 1.4437-3.7804 3.6883-3.7804 6.7337 0 2.143 1.0351 3.6996 3.1054 4.6696 2.0702.9475 5.4006 1.4212 9.9911 1.4212 4.1855 0 6.2783.688 6.2783 2.0641 0 .3835-.3826.7444-1.1477 1.0828-.765.3158-2.0814.4737-3.9492.4737-1.8227 0-3.7917-.2594-5.9069-.7782-2.1153-.5189-3.9717-1.2407-5.5694-2.1656-.4726 1.3083-.9676 2.4588-1.4852 3.4514z" fill="#9e86ff" fill-rule="evenodd"></path></svg><style>@media (prefers-color-scheme: light) { :root { filter: none; } }
@media (prefers-color-scheme: dark) { :root { filter: none; } }
</style></svg>