<svg fill="none" height="117" viewBox="0 0 236 117" width="236" xmlns="http://www.w3.org/2000/svg"><path clip-rule="evenodd" d="m218.762 78.7997.182-.1392c1.645-1.2612 2.864-2.1964 3.712-2.8924.06-.0497.118-.0979.174-.1445-.356.0246-.77.0576-1.246.0955l-.083.0066c-2.073.1617-3.824.0467-5.063-.3785-.621-.213-1.201-.5335-1.602-1.0224-.431-.5257-.592-1.1727-.462-1.8498l.005-.0277.007-.0274c.185-.7399.808-1.068 1.3-1.1796.491-.1116 1.041-.0699 1.56.049l.035.008.034.0105s-.001-.0004.002.0001c.013.0025.075.0146.21.0228.149.0091.346.0113.591.0044.488-.0138 1.12-.0621 1.857-.142 1.47-.1594 3.307-.4388 5.155-.7917 2.358-.463 4.232-.7459 5.679-.8248 1.388-.0758 2.573.0209 3.411.4961l.009.0048c.336.1773.737.3886 1.031.657.169.1546.335.354.448.6136.115.2635.152.5338.138.7954-.025.474-.222.9655-.45 1.4462-.24.5057-.588 1.1417-1.029 1.9372l-.004.0078-.004.0077c-1.013 1.7544-2.748 5.5295-3.848 8.3435l-.001.0047c-.823 2.0735-1.397 3.4244-1.877 4.2378-.238.4037-.511.7773-.859 1.0307-.406.2952-.856.3847-1.304.3064-.577-.0989-1.126-.3011-1.571-.6732-.462-.3853-.742-.8949-.861-1.4741-.22-1.0748.115-2.394.722-3.8466.421-1.0835.915-2.4037 1.279-3.4513-.332.2608-.713.5637-1.148.912l-.007.0056c-10.504 8.25-26.219 15.6449-41.316 19.3521h-.002c-22.099 5.392-37.437 3.286-46.56-7.0349l-.006-.0061-2.379-2.7367-2.988.6803c-11.341 2.55-24.678 1.1486-35.7266-3.6914l-.003-.0013-3.5664-1.5352-5.9073 4.6483-.0013.001c-17.1458 13.445-34.3222 18.884-50.7383 15.978l-.0053-.001c-2.8846-.526-6.5408-1.399-8.0601-1.956l-.0066-.003c-1.1257-.421-1.6781-.54-2.0588-.516-.3043.02-.603.138-1.1884.619-3.2266 2.774-8.0422 5.905-12.27 8.21-2.11751 1.155-4.11733 2.118-5.72097 2.73-.7983.304-1.53091.534-2.14774.65-.30832.058-.61658.094-.90613.086-.27777-.008-.62122-.057-.93649-.239-.51241-.296-1.08441-.711-1.33245-1.335-.301598-.758-.00607-1.446.40425-1.944.39084-.475.9968-.931 1.73333-1.395.75412-.475 1.7255-1.006 2.91505-1.615l.00762-.004.0077-.004c4.70043-2.304 10.63273-5.983 13.42583-8.271l.0101-.008.3437-.267-1.4345-.828c-1.7439-1.0071-3.5989-2.5355-5.1252-4.1198-1.5012-1.5582-2.7984-3.2873-3.2983-4.7264-2.66039-7.4031 2.2899-15.9114 10.3686-18.2287l.0012-.0004c2.8995-.8281 5.5825-.7132 7.8925.4172 2.3044 1.1278 4.1097 3.2035 5.3809 6.0561l.0019.0044c2.1437 4.8727 1.2312 10.0803-2.4172 16.3994l-.0057.01-2.2803 3.8462.8061.279c3.3071 1.183 10.1096 2.148 14.494 2.152 3.1153-.01 8.0832-.979 13.1461-2.431 5.0521-1.449 10.0644-3.3403 13.2628-5.128 2.8594-1.6129 7.1488-4.5643 10.7377-7.2573 1.7918-1.3445 3.391-2.6112 4.5361-3.6003.5709-.4932 1.0118-.9027 1.3044-1.2103-.0418-.037-.0873-.0762-.1366-.1174-.3909-.3264-.9481-.7193-1.585-1.087-1.4735-.8507-4.2574-3.169-6.3502-5.2148-9.3342-9.1049-13.3061-20.632-12.0911-32.4036 1.2133-11.7551 7.5872-23.6732 18.7894-33.6489l.0034-.003c6.5632-5.79188 13.1399-9.13819 18.9633-9.786112 5.887-.6550016 10.966 1.462992 14.285 6.460522l.005.00827.005.00838c.996 1.56519 1.944 4.12324 2.654 6.83934.714 2.7331 1.215 5.7403 1.263 8.2502.409 17.5701-9.15 39.7417-24.4221 56.8277-.8881 1.0203-1.6916 1.9973-2.2523 2.7477-.176.2356-.3218.4405-.4363.6119.2205.1199.5096.2598.8659.4165.9646.4243 2.3119.9241 3.8488 1.4323 3.076 1.0169 6.816 2.0365 9.6 2.5337 6.314 1.1265 12.902 1.0039 19.041-.4054.003-.0006.005-.0012.008-.0018l3.37-.8283-.421-2.0645c-.488-2.4676-.607-4.5028-.163-6.6455.44-2.1218 1.417-4.273 2.99-6.9975 1.719-3.0437 3.42-5.3275 5.343-6.9812 1.938-1.6667 4.063-2.6596 6.572-3.1808 2.029-.4662 3.805-.4681 5.348.1514 1.559.6258 2.737 1.8273 3.674 3.4783 2.077 3.6621 1.164 8.4064-1.415 12.7214-2.603 4.355-7.027 8.5181-12.481 11.2151l-.002.0007-2.658 1.3288 1.122 1.5346c1.109 1.5345 2.995 3.1029 5.275 4.4195 2.271 1.3111 4.863 2.3316 7.322 2.8147 8.864 1.7204 20.805.4912 32.807-2.9094 11.99-3.3969 23.917-8.9259 32.745-15.6892zm-123.1956 3.4011c-.0149-.0137-.0106-.0124.004.0036-.0016-.0014-.004-.0036-.004-.0036zm19.3606-72.9201c-1.876-2.88876-4.26-4.19622-7.285-4.10183-3.131.09771-7.076 1.70142-11.9493 5.02293l-.0023.0015c-7.9341 5.3764-12.0149 9.8775-17.4503 19.2919-2.1669 3.7532-3.3367 5.8801-4.0732 7.6132-.7212 1.697-1.0327 3.03-1.4398 5.2227-1.6529 9.4913.4213 18.6161 6.0581 26.4299l.001.0014c2.3136 3.2186 5.2529 6.1875 7.8121 8.1322 1.2853.9766 2.4284 1.6594 3.3148 2.0002.4446.171.7721.2353.9906.2377.1047.0012.1664-.012.1968-.0219.0147-.0048.0222-.0088.0248-.0103l.0023-.0015.003-.0027c3.4016-3.1511 7.9885-9.14 12.2204-15.6705 4.227-6.5223 8.029-13.4742 9.9-18.5119 2.704-7.3387 4.214-14.6119 4.49-20.8918.278-6.3123-.697-11.4853-2.814-14.7412zm37.077 58.156v-.002c-.114-1.6197-.501-2.4239-.91-2.7782-.346-.2998-.948-.4721-2.123-.1151-3.081.9343-6.243 3.773-8.506 7.296-2.267 3.5292-3.468 7.4876-2.939 10.5045l.001.0058.206 1.2189.799-.3118.005-.002c1.621-.6546 3.785-2.1349 5.906-3.9885 2.111-1.8452 4.092-3.9834 5.367-5.879 1.14-1.7094 1.701-2.6418 1.982-3.4231.26-.7192.296-1.3514.212-2.5255zm-125.0084 24.9455.0024-.0047c1.1753-2.2862 1.8749-4.6885 2.0913-6.853.2179-2.1805-.0626-4.0261-.7371-5.2732-.7823-1.4078-1.4642-2.0272-2.2647-2.2747-.8631-.2668-2.0925-.1786-4.153.4206-2.8374.8487-4.6778 2.3668-6.2645 5.1151-1.2137 2.1022-1.3814 4.2668-.5971 6.3857.7967 2.1525 2.6088 4.3377 5.5007 6.3354.8434.5821 1.453.997 1.923 1.2828.4863.2958.7289.3927.8518.419.0228.0048.0268.0076.0295.0067.0025-.0008.004-.0044.0169-.0121.1059-.0633.2492-.193.5746-.517.2467-.28.7176-.9683 1.2912-1.9134.5698-.9387 1.1981-2.0591 1.735-3.1172z" fill="#2f221b" fill-rule="evenodd"/></svg>