<svg width="1430" height="2" viewBox="0 0 1430 2" fill="none" xmlns="http://www.w3.org/2000/svg">
<path d="M9.445 0.879193C8.84852 0.526724 8.1722 0.302289 7.48232 0.234507C6.64785 0.192331 5.81186 0.284214 4.97739 0.312833C4.17002 0.37459 3.35061 0.35049 2.55228 0.498105C1.76149 0.651745 1.00684 0.971076 0.332031 1.4094C1.07312 1.73476 1.87747 1.93208 2.68634 1.97124C3.40032 2.00137 4.11128 1.90798 4.82525 1.88087C6.07998 1.76488 7.39948 1.91551 8.58191 1.40488C8.86057 1.2889 9.12718 1.1458 9.38475 0.987645C9.43295 0.946975 9.55647 0.924381 9.445 0.880699V0.879193Z" fill="#2F221B" fill-opacity="0.3"/>
<path d="M26.1467 0.602044C25.4583 0.326395 24.7202 0.32037 23.9912 0.321876C22.3855 0.294763 21.0148 0.263131 19.9197 0.228487C18.6439 0.121541 17.3395 0.297776 16.2068 0.921374C16.9524 1.41242 17.8125 1.73175 18.6966 1.84773C19.2931 1.89443 19.8926 1.8869 20.4906 1.9125C21.4381 1.93811 22.3855 1.95769 23.333 1.97577C23.9084 1.98029 24.4838 2.00891 25.0592 1.99535C25.6963 1.9366 26.3199 1.74079 26.8712 1.41694H26.8727C26.9089 1.40188 26.9149 1.39886 26.9586 1.39736C26.951 1.39736 26.9525 1.39736 26.9631 1.39736C26.9992 1.39886 27.0339 1.40489 27.0685 1.41393C27.0896 1.41995 27.1092 1.42748 27.1288 1.43501C27.1303 1.41995 27.1318 1.40639 27.1318 1.39133C27.1318 0.912336 26.5037 0.766228 26.1467 0.600537V0.602044Z" fill="#2F221B" fill-opacity="0.3"/>
<path d="M40.9126 0.293251C40.4125 0.245051 39.9079 0.275176 39.4048 0.267645C38.3941 0.276682 37.3819 0.246557 36.3727 0.278189C35.4855 0.367059 34.6149 0.644214 33.8467 1.09911C34.5396 1.50882 35.3183 1.77392 36.1136 1.8899C37.1816 1.98179 38.2601 1.90949 39.3325 1.93057C39.798 1.92605 40.2634 1.93961 40.7273 1.92455C41.5166 1.85074 42.2909 1.57057 42.931 1.09911C42.3421 0.665302 41.6386 0.394172 40.9141 0.293251H40.9126Z" fill="#2F221B" fill-opacity="0.3"/>
<path d="M59.7846 1.07949C59.4397 0.861083 59.0691 0.683343 58.679 0.565853C58.1051 0.364012 57.4996 0.333886 56.8971 0.34443C56.2448 0.338405 55.5911 0.326355 54.9389 0.317317C53.9945 0.317317 53.047 0.264598 52.1026 0.297736C51.232 0.377568 50.3749 0.645686 49.6443 1.13071C50.0555 1.33104 50.4894 1.48016 50.9277 1.60669C50.8825 1.59313 50.8388 1.58108 50.7936 1.56753C51.2576 1.71364 51.7335 1.83112 52.2201 1.86426C53.5848 1.90041 54.951 1.89891 56.3156 1.90794C57.3504 1.93506 58.4184 1.92753 59.3538 1.42292C59.5285 1.33556 59.6987 1.24066 59.8614 1.13071C59.8358 1.11414 59.8117 1.09757 59.7861 1.081L59.7846 1.07949Z" fill="#2F221B" fill-opacity="0.3"/>
<path d="M75.6894 0.879201C75.0929 0.526732 74.4166 0.302297 73.7267 0.234514C72.8922 0.192339 72.0562 0.284222 71.2218 0.312841C70.4144 0.374598 69.595 0.350498 68.7967 0.498113C68.0044 0.651753 67.2512 0.969577 66.5764 1.4079C67.3175 1.73326 68.1218 1.93058 68.9307 1.96974C69.6447 1.99987 70.3557 1.90648 71.0696 1.87937C72.3244 1.76338 73.6439 1.91401 74.8263 1.40338C75.1049 1.2874 75.3716 1.14431 75.6291 0.986146C75.6773 0.945477 75.8008 0.922883 75.6894 0.879201Z" fill="#2F221B" fill-opacity="0.3"/>
<path d="M92.3911 0.602044C91.7027 0.326395 90.9646 0.32037 90.2356 0.321876C88.6299 0.294763 87.2592 0.263131 86.1641 0.228487C84.8883 0.121541 83.5839 0.297776 82.4511 0.921374C83.1967 1.41242 84.0568 1.73175 84.941 1.84773C85.5375 1.89443 86.137 1.8869 86.735 1.9125C87.6824 1.93811 88.6299 1.95769 89.5773 1.97577C90.1527 1.98029 90.7281 2.00891 91.3035 1.99535C91.9407 1.9366 92.5643 1.74079 93.1156 1.41694H93.1171C93.1532 1.40188 93.1593 1.39886 93.2029 1.39736C93.1954 1.39736 93.1969 1.39736 93.2075 1.39736C93.2436 1.39886 93.2783 1.40489 93.3129 1.41393C93.334 1.41995 93.3536 1.42748 93.3732 1.43501C93.3747 1.41995 93.3762 1.40639 93.3762 1.39133C93.3762 0.912336 92.748 0.766228 92.3911 0.600537V0.602044Z" fill="#2F221B" fill-opacity="0.3"/>
<path d="M107.157 0.293259C106.657 0.245058 106.152 0.275184 105.649 0.267652C104.639 0.27669 103.626 0.246564 102.617 0.278196C101.73 0.367067 100.859 0.644221 100.091 1.09912C100.784 1.50882 101.563 1.77393 102.358 1.88991C103.426 1.98179 104.504 1.90949 105.577 1.93058C106.042 1.92606 106.508 1.93962 106.972 1.92456C107.761 1.85075 108.535 1.57058 109.175 1.09912C108.586 0.665309 107.883 0.394179 107.159 0.293259H107.157Z" fill="#2F221B" fill-opacity="0.3"/>
<path d="M126.03 1.07949C125.685 0.861083 125.314 0.683343 124.924 0.565853C124.35 0.364012 123.745 0.333886 123.142 0.34443C122.49 0.338405 121.836 0.326355 121.184 0.317317C120.239 0.317317 119.292 0.264598 118.348 0.297736C117.477 0.377568 116.62 0.645686 115.889 1.13071C116.301 1.33104 116.734 1.48016 117.173 1.60669C117.127 1.59313 117.084 1.58108 117.039 1.56753C117.503 1.71364 117.979 1.83112 118.465 1.86426C119.83 1.90041 121.196 1.89891 122.561 1.90794C123.595 1.93506 124.663 1.92753 125.599 1.42292C125.773 1.33556 125.944 1.24066 126.106 1.13071C126.081 1.11414 126.057 1.09757 126.031 1.081L126.03 1.07949Z" fill="#2F221B" fill-opacity="0.3"/>
<path d="M206.132 0.293259C205.632 0.245058 205.127 0.275184 204.624 0.267652C203.613 0.27669 202.601 0.246564 201.592 0.278196C200.705 0.367067 199.834 0.644221 199.066 1.09912C199.759 1.50882 200.537 1.77393 201.333 1.88991C202.401 1.98179 203.479 1.90949 204.552 1.93058C205.017 1.92606 205.482 1.93962 205.946 1.92456C206.736 1.85075 207.51 1.57058 208.15 1.09912C207.561 0.665309 206.858 0.394179 206.133 0.293259H206.132Z" fill="#2F221B" fill-opacity="0.3"/>
<path d="M141.934 0.879201C141.337 0.526732 140.661 0.302297 139.971 0.234514C139.137 0.192339 138.301 0.284222 137.466 0.312841C136.659 0.374598 135.839 0.350498 135.041 0.498113C134.249 0.651753 133.496 0.969577 132.821 1.4079C133.562 1.73326 134.366 1.93058 135.175 1.96974C135.889 1.99987 136.6 1.90648 137.314 1.87937C138.569 1.76338 139.888 1.91401 141.071 1.40338C141.349 1.2874 141.616 1.14431 141.874 0.986146C141.922 0.945477 142.045 0.922883 141.934 0.879201Z" fill="#2F221B" fill-opacity="0.3"/>
<path d="M158.634 0.602044C157.946 0.326395 157.208 0.32037 156.479 0.321876C154.873 0.294763 153.502 0.263131 152.407 0.228487C151.131 0.121541 149.827 0.297776 148.694 0.921374C149.44 1.41242 150.3 1.73175 151.184 1.84773C151.781 1.89443 152.38 1.8869 152.978 1.9125C153.926 1.93811 154.873 1.95769 155.821 1.97577C156.396 1.98029 156.971 2.00891 157.547 1.99535C158.184 1.9366 158.807 1.74079 159.359 1.41694H159.36C159.396 1.40188 159.402 1.39886 159.446 1.39736C159.439 1.39736 159.44 1.39736 159.451 1.39736C159.487 1.39886 159.521 1.40489 159.556 1.41393C159.577 1.41995 159.597 1.42748 159.616 1.43501C159.618 1.41995 159.619 1.40639 159.619 1.39133C159.619 0.912336 158.991 0.766228 158.634 0.600537V0.602044Z" fill="#2F221B" fill-opacity="0.3"/>
<path d="M173.401 0.293259C172.901 0.245058 172.397 0.275184 171.894 0.267652C170.883 0.27669 169.871 0.246564 168.861 0.278196C167.974 0.367067 167.104 0.644221 166.335 1.09912C167.028 1.50882 167.807 1.77393 168.602 1.88991C169.67 1.98179 170.749 1.90949 171.821 1.93058C172.287 1.92606 172.752 1.93962 173.216 1.92456C174.005 1.85075 174.78 1.57058 175.42 1.09912C174.831 0.665309 174.127 0.394179 173.403 0.293259H173.401Z" fill="#2F221B" fill-opacity="0.3"/>
<path d="M192.274 1.07949C191.929 0.861083 191.558 0.683343 191.168 0.565853C190.594 0.364012 189.989 0.333886 189.386 0.34443C188.734 0.338405 188.08 0.326355 187.428 0.317317C186.484 0.317317 185.536 0.264598 184.592 0.297736C183.721 0.377568 182.864 0.645686 182.134 1.13071C182.545 1.33104 182.979 1.48016 183.417 1.60669C183.372 1.59313 183.328 1.58108 183.283 1.56753C183.747 1.71364 184.223 1.83112 184.709 1.86426C186.074 1.90041 187.44 1.89891 188.805 1.90794C189.84 1.93506 190.908 1.92753 191.843 1.42292C192.018 1.33556 192.188 1.24066 192.351 1.13071C192.325 1.11414 192.301 1.09757 192.275 1.081L192.274 1.07949Z" fill="#2F221B" fill-opacity="0.3"/>
<path d="M224.038 0.879193C223.442 0.526724 222.765 0.302289 222.075 0.234507C221.241 0.192331 220.405 0.284214 219.571 0.312833C218.763 0.37459 217.944 0.35049 217.145 0.498105C216.353 0.651745 215.6 0.969569 214.925 1.4079C215.666 1.73325 216.471 1.93057 217.279 1.96974C217.993 1.99986 218.704 1.90647 219.418 1.87936C220.673 1.76338 221.993 1.914 223.175 1.40338C223.454 1.28739 223.72 1.1443 223.978 0.986138C224.026 0.945469 224.15 0.922875 224.038 0.879193Z" fill="#2F221B" fill-opacity="0.3"/>
<path d="M240.738 0.602044C240.05 0.326395 239.312 0.32037 238.583 0.321876C236.977 0.294763 235.606 0.263131 234.511 0.228487C233.235 0.121541 231.931 0.297776 230.798 0.921374C231.544 1.41242 232.404 1.73175 233.288 1.84773C233.885 1.89443 234.484 1.8869 235.082 1.9125C236.029 1.93811 236.977 1.95769 237.924 1.97577C238.5 1.98029 239.075 2.00891 239.651 1.99535C240.288 1.9366 240.911 1.74079 241.463 1.41694H241.464C241.5 1.40188 241.506 1.39886 241.55 1.39736C241.542 1.39736 241.544 1.39736 241.554 1.39736C241.591 1.39886 241.625 1.40489 241.66 1.41393C241.681 1.41995 241.701 1.42748 241.72 1.43501C241.722 1.41995 241.723 1.40639 241.723 1.39133C241.723 0.912336 241.095 0.766228 240.738 0.600537V0.602044Z" fill="#2F221B" fill-opacity="0.3"/>
<path d="M255.506 0.293251C255.006 0.245051 254.501 0.275176 253.998 0.267645C252.987 0.276682 251.975 0.246557 250.966 0.278189C250.079 0.367059 249.208 0.644214 248.44 1.09911C249.133 1.50882 249.911 1.77392 250.707 1.8899C251.775 1.98179 252.853 1.90949 253.926 1.93057C254.391 1.92605 254.857 1.93961 255.32 1.92455C256.11 1.85074 256.884 1.57057 257.524 1.09911C256.935 0.665302 256.232 0.394172 255.507 0.293251H255.506Z" fill="#2F221B" fill-opacity="0.3"/>
<path d="M274.378 1.07949C274.033 0.861083 273.662 0.683343 273.272 0.565853C272.698 0.364012 272.093 0.333886 271.49 0.34443C270.838 0.338405 270.184 0.326355 269.532 0.317317C268.588 0.317317 267.64 0.264598 266.696 0.297736C265.825 0.377568 264.968 0.645686 264.238 1.13071C264.649 1.33104 265.083 1.48016 265.521 1.60669C265.476 1.59313 265.432 1.58108 265.387 1.56753C265.851 1.71364 266.327 1.83112 266.813 1.86426C268.178 1.90041 269.544 1.89891 270.909 1.90794C271.944 1.93506 273.012 1.92753 273.947 1.42292C274.122 1.33556 274.292 1.24066 274.455 1.13071C274.429 1.11414 274.405 1.09757 274.379 1.081L274.378 1.07949Z" fill="#2F221B" fill-opacity="0.3"/>
<path d="M290.283 0.879201C289.686 0.526732 289.01 0.302297 288.32 0.234514C287.485 0.192339 286.649 0.284222 285.815 0.312841C285.008 0.374598 284.188 0.350498 283.39 0.498113C282.598 0.651753 281.844 0.969577 281.17 1.4079C281.911 1.73326 282.715 1.93058 283.524 1.96974C284.238 1.99987 284.949 1.90648 285.663 1.87937C286.918 1.76338 288.237 1.91401 289.419 1.40338C289.698 1.2874 289.965 1.14431 290.222 0.986146C290.27 0.945477 290.394 0.922883 290.283 0.879201Z" fill="#2F221B" fill-opacity="0.3"/>
<path d="M306.982 0.602044C306.294 0.326395 305.556 0.32037 304.827 0.321876C303.221 0.294763 301.851 0.263131 300.756 0.228487C299.48 0.121541 298.175 0.297776 297.043 0.921374C297.788 1.41242 298.648 1.73175 299.532 1.84773C300.129 1.89443 300.728 1.8869 301.326 1.9125C302.274 1.93811 303.221 1.95769 304.169 1.97577C304.744 1.98029 305.32 2.00891 305.895 1.99535C306.532 1.9366 307.156 1.74079 307.707 1.41694H307.708C307.745 1.40188 307.751 1.39886 307.794 1.39736C307.787 1.39736 307.788 1.39736 307.799 1.39736C307.835 1.39886 307.87 1.40489 307.904 1.41393C307.925 1.41995 307.945 1.42748 307.965 1.43501C307.966 1.41995 307.968 1.40639 307.968 1.39133C307.968 0.912336 307.339 0.766228 306.982 0.600537V0.602044Z" fill="#2F221B" fill-opacity="0.3"/>
<path d="M321.749 0.293259C321.249 0.245058 320.744 0.275184 320.241 0.267652C319.23 0.27669 318.218 0.246564 317.209 0.278196C316.322 0.367067 315.451 0.644221 314.683 1.09912C315.376 1.50882 316.155 1.77393 316.95 1.88991C318.018 1.98179 319.096 1.90949 320.169 1.93058C320.634 1.92606 321.1 1.93962 321.564 1.92456C322.353 1.85075 323.127 1.57058 323.767 1.09912C323.178 0.665309 322.475 0.394179 321.75 0.293259H321.749Z" fill="#2F221B" fill-opacity="0.3"/>
<path d="M340.622 1.07949C340.277 0.861083 339.907 0.683343 339.517 0.565853C338.943 0.364012 338.337 0.333886 337.735 0.34443C337.082 0.338405 336.429 0.326355 335.776 0.317317C334.832 0.317317 333.885 0.264598 332.94 0.297736C332.069 0.377568 331.212 0.645686 330.482 1.13071C330.893 1.33104 331.327 1.48016 331.765 1.60669C331.72 1.59313 331.676 1.58108 331.631 1.56753C332.095 1.71364 332.571 1.83112 333.058 1.86426C334.422 1.90041 335.788 1.89891 337.153 1.90794C338.188 1.93506 339.256 1.92753 340.191 1.42292C340.366 1.33556 340.536 1.24066 340.699 1.13071C340.673 1.11414 340.649 1.09757 340.624 1.081L340.622 1.07949Z" fill="#2F221B" fill-opacity="0.3"/>
<path d="M420.723 0.293251C420.223 0.245051 419.718 0.275176 419.215 0.267645C418.205 0.276682 417.192 0.246557 416.183 0.278189C415.296 0.367059 414.425 0.644214 413.657 1.09911C414.35 1.50882 415.129 1.77392 415.924 1.8899C416.992 1.98179 418.071 1.90949 419.143 1.93057C419.608 1.92605 420.074 1.93961 420.538 1.92455C421.327 1.85074 422.101 1.57057 422.742 1.09911C422.153 0.665302 421.449 0.394172 420.725 0.293251H420.723Z" fill="#2F221B" fill-opacity="0.3"/>
<path d="M356.526 0.879193C355.929 0.526724 355.253 0.302289 354.563 0.234507C353.729 0.192331 352.893 0.284214 352.058 0.312833C351.251 0.37459 350.431 0.35049 349.633 0.498105C348.841 0.651745 348.087 0.969569 347.413 1.4079C348.154 1.73325 348.958 1.93057 349.767 1.96974C350.481 1.99986 351.192 1.90647 351.906 1.87936C353.161 1.76338 354.48 1.914 355.663 1.40338C355.941 1.28739 356.208 1.1443 356.465 0.986138C356.514 0.945469 356.637 0.922875 356.526 0.879193Z" fill="#2F221B" fill-opacity="0.3"/>
<path d="M373.227 0.602044C372.539 0.326395 371.801 0.32037 371.072 0.321876C369.466 0.294763 368.096 0.263131 367 0.228487C365.725 0.121541 364.42 0.297776 363.288 0.921374C364.033 1.41242 364.893 1.73175 365.777 1.84773C366.374 1.89443 366.973 1.8869 367.571 1.9125C368.519 1.93811 369.466 1.95769 370.414 1.97577C370.989 1.98029 371.564 2.00891 372.14 1.99535C372.777 1.9366 373.401 1.74079 373.952 1.41694H373.953C373.99 1.40188 373.996 1.39886 374.039 1.39736C374.032 1.39736 374.033 1.39736 374.044 1.39736C374.08 1.39886 374.115 1.40489 374.149 1.41393C374.17 1.41995 374.19 1.42748 374.209 1.43501C374.211 1.41995 374.212 1.40639 374.212 1.39133C374.212 0.912336 373.584 0.766228 373.227 0.600537V0.602044Z" fill="#2F221B" fill-opacity="0.3"/>
<path d="M387.993 0.293251C387.493 0.245051 386.989 0.275176 386.485 0.267645C385.475 0.276682 384.463 0.246557 383.453 0.278189C382.566 0.367059 381.696 0.644214 380.927 1.09911C381.62 1.50882 382.399 1.77392 383.194 1.8899C384.262 1.98179 385.341 1.90949 386.413 1.93057C386.879 1.92605 387.344 1.93961 387.808 1.92455C388.597 1.85074 389.372 1.57057 390.012 1.09911C389.423 0.665302 388.719 0.394172 387.995 0.293251H387.993Z" fill="#2F221B" fill-opacity="0.3"/>
<path d="M406.865 1.07953C406.52 0.861117 406.15 0.683377 405.76 0.565887C405.186 0.364046 404.58 0.333921 403.978 0.344465C403.326 0.33844 402.672 0.326389 402.02 0.317352C401.075 0.317352 400.128 0.264632 399.183 0.29777C398.313 0.377603 397.456 0.64572 396.725 1.13074C397.136 1.33108 397.57 1.4802 398.009 1.60672C397.963 1.59317 397.92 1.58112 397.874 1.56756C398.338 1.71367 398.814 1.83116 399.301 1.8643C400.666 1.90045 402.032 1.89894 403.396 1.90798C404.431 1.93509 405.499 1.92756 406.435 1.42296C406.609 1.33559 406.78 1.2407 406.942 1.13074C406.917 1.11417 406.893 1.0976 406.867 1.08103L406.865 1.07953Z" fill="#2F221B" fill-opacity="0.3"/>
<path d="M469.426 0.293259C468.926 0.245058 468.421 0.275184 467.918 0.267652C466.907 0.27669 465.895 0.246564 464.886 0.278196C463.999 0.367067 463.128 0.644221 462.36 1.09912C463.053 1.50882 463.831 1.77393 464.627 1.88991C465.695 1.98179 466.773 1.90949 467.846 1.93058C468.311 1.92606 468.777 1.93962 469.241 1.92456C470.03 1.85075 470.804 1.57058 471.444 1.09912C470.855 0.665309 470.152 0.394179 469.427 0.293259H469.426Z" fill="#2F221B" fill-opacity="0.3"/>
<path d="M436.695 0.293259C436.195 0.245058 435.691 0.275184 435.188 0.267652C434.177 0.27669 433.165 0.246564 432.156 0.278196C431.268 0.367067 430.398 0.644221 429.63 1.09912C430.322 1.50882 431.101 1.77393 431.897 1.88991C432.964 1.98179 434.043 1.90949 435.115 1.93058C435.581 1.92606 436.046 1.93962 436.51 1.92456C437.299 1.85075 438.074 1.57058 438.714 1.09912C438.125 0.665309 437.422 0.394179 436.697 0.293259H436.695Z" fill="#2F221B" fill-opacity="0.3"/>
<path d="M455.568 1.07949C455.223 0.861083 454.853 0.683343 454.462 0.565853C453.889 0.364012 453.283 0.333886 452.681 0.34443C452.028 0.338405 451.375 0.326355 450.722 0.317317C449.778 0.317317 448.83 0.264598 447.886 0.297736C447.015 0.377568 446.158 0.645686 445.428 1.13071C445.839 1.33104 446.273 1.48016 446.711 1.60669C446.666 1.59313 446.622 1.58108 446.577 1.56753C447.041 1.71364 447.517 1.83112 448.004 1.86426C449.368 1.90041 450.734 1.89891 452.099 1.90794C453.134 1.93506 454.202 1.92753 455.137 1.42292C455.312 1.33556 455.482 1.24066 455.645 1.13071C455.619 1.11414 455.595 1.09757 455.57 1.081L455.568 1.07949Z" fill="#2F221B" fill-opacity="0.3"/>
<path d="M488.557 0.879193C487.961 0.526724 487.284 0.302289 486.594 0.234507C485.76 0.192331 484.924 0.284214 484.09 0.312833C483.282 0.37459 482.463 0.35049 481.664 0.498105C480.874 0.651745 480.119 0.971076 479.444 1.4094C480.185 1.73476 480.99 1.93208 481.798 1.97124C482.512 2.00137 483.223 1.90798 483.937 1.88087C485.192 1.76488 486.512 1.91551 487.694 1.40488C487.973 1.2889 488.239 1.1458 488.497 0.987645C488.545 0.946975 488.669 0.924381 488.557 0.880699V0.879193Z" fill="#2F221B" fill-opacity="0.3"/>
<path d="M505.259 0.602044C504.57 0.326395 503.832 0.32037 503.103 0.321876C501.498 0.294763 500.127 0.263131 499.032 0.228487C497.756 0.121541 496.452 0.297776 495.319 0.921374C496.065 1.41242 496.925 1.73175 497.809 1.84773C498.405 1.89443 499.005 1.8869 499.603 1.9125C500.55 1.93811 501.498 1.95769 502.445 1.97577C503.021 1.98029 503.596 2.00891 504.171 1.99535C504.808 1.9366 505.432 1.74079 505.983 1.41694H505.985C506.021 1.40188 506.027 1.39886 506.071 1.39736C506.063 1.39736 506.065 1.39736 506.075 1.39736C506.111 1.39886 506.146 1.40489 506.181 1.41393C506.202 1.41995 506.221 1.42748 506.241 1.43501C506.242 1.41995 506.244 1.40639 506.244 1.39133C506.244 0.912336 505.616 0.766228 505.259 0.600537V0.602044Z" fill="#2F221B" fill-opacity="0.3"/>
<path d="M520.025 0.293251C519.525 0.245051 519.02 0.275176 518.517 0.267645C517.506 0.276682 516.494 0.246557 515.485 0.278189C514.598 0.367059 513.727 0.644214 512.959 1.09911C513.652 1.50882 514.43 1.77392 515.226 1.8899C516.294 1.98179 517.372 1.90949 518.445 1.93057C518.91 1.92605 519.376 1.93961 519.839 1.92455C520.629 1.85074 521.403 1.57057 522.043 1.09911C521.454 0.665302 520.751 0.394172 520.026 0.293251H520.025Z" fill="#2F221B" fill-opacity="0.3"/>
<path d="M538.897 1.07949C538.552 0.861083 538.181 0.683343 537.791 0.565853C537.217 0.364012 536.612 0.333886 536.009 0.34443C535.357 0.338405 534.703 0.326355 534.051 0.317317C533.107 0.317317 532.159 0.264598 531.215 0.297736C530.344 0.377568 529.487 0.645686 528.756 1.13071C529.168 1.33104 529.602 1.48016 530.04 1.60669C529.995 1.59313 529.951 1.58108 529.906 1.56753C530.37 1.71364 530.846 1.83112 531.332 1.86426C532.697 1.90041 534.063 1.89891 535.428 1.90794C536.463 1.93506 537.531 1.92753 538.466 1.42292C538.641 1.33556 538.811 1.24066 538.974 1.13071C538.948 1.11414 538.924 1.09757 538.898 1.081L538.897 1.07949Z" fill="#2F221B" fill-opacity="0.3"/>
<path d="M554.802 0.879201C554.205 0.526732 553.529 0.302297 552.839 0.234514C552.004 0.192339 551.168 0.284222 550.334 0.312841C549.527 0.374598 548.707 0.350498 547.909 0.498113C547.117 0.651753 546.363 0.969577 545.689 1.4079C546.43 1.73326 547.234 1.93058 548.043 1.96974C548.757 1.99987 549.468 1.90648 550.182 1.87937C551.436 1.76338 552.756 1.91401 553.938 1.40338C554.217 1.2874 554.484 1.14431 554.741 0.986146C554.789 0.945477 554.913 0.922883 554.802 0.879201Z" fill="#2F221B" fill-opacity="0.3"/>
<path d="M571.503 0.602044C570.815 0.326395 570.077 0.32037 569.348 0.321876C567.742 0.294763 566.371 0.263131 565.276 0.228487C564 0.121541 562.696 0.297776 561.563 0.921374C562.309 1.41242 563.169 1.73175 564.053 1.84773C564.65 1.89443 565.249 1.8869 565.847 1.9125C566.795 1.93811 567.742 1.95769 568.689 1.97577C569.265 1.98029 569.84 2.00891 570.416 1.99535C571.053 1.9366 571.676 1.74079 572.228 1.41694H572.229C572.265 1.40188 572.271 1.39886 572.315 1.39736C572.308 1.39736 572.309 1.39736 572.32 1.39736C572.356 1.39886 572.39 1.40489 572.425 1.41393C572.446 1.41995 572.466 1.42748 572.485 1.43501C572.487 1.41995 572.488 1.40639 572.488 1.39133C572.488 0.912336 571.86 0.766228 571.503 0.600537V0.602044Z" fill="#2F221B" fill-opacity="0.3"/>
<path d="M586.269 0.293259C585.769 0.245058 585.264 0.275184 584.761 0.267652C583.751 0.27669 582.738 0.246564 581.729 0.278196C580.842 0.367067 579.971 0.644221 579.203 1.09912C579.896 1.50882 580.675 1.77393 581.47 1.88991C582.538 1.98179 583.617 1.90949 584.689 1.93058C585.155 1.92606 585.62 1.93962 586.084 1.92456C586.873 1.85075 587.647 1.57058 588.288 1.09912C587.699 0.665309 586.995 0.394179 586.271 0.293259H586.269Z" fill="#2F221B" fill-opacity="0.3"/>
<path d="M605.142 1.07949C604.797 0.861083 604.426 0.683343 604.036 0.565853C603.462 0.364012 602.857 0.333886 602.254 0.34443C601.602 0.338405 600.948 0.326355 600.296 0.317317C599.352 0.317317 598.404 0.264598 597.46 0.297736C596.589 0.377568 595.732 0.645686 595.001 1.13071C595.413 1.33104 595.846 1.48016 596.285 1.60669C596.24 1.59313 596.196 1.58108 596.151 1.56753C596.615 1.71364 597.091 1.83112 597.577 1.86426C598.942 1.90041 600.308 1.89891 601.673 1.90794C602.708 1.93506 603.776 1.92753 604.711 1.42292C604.886 1.33556 605.056 1.24066 605.219 1.13071C605.193 1.11414 605.169 1.09757 605.143 1.081L605.142 1.07949Z" fill="#2F221B" fill-opacity="0.3"/>
<path d="M685.244 0.293259C684.744 0.245058 684.239 0.275184 683.736 0.267652C682.725 0.27669 681.713 0.246564 680.704 0.278196C679.817 0.367067 678.946 0.644221 678.178 1.09912C678.871 1.50882 679.65 1.77393 680.445 1.88991C681.513 1.98179 682.591 1.90949 683.664 1.93058C684.129 1.92606 684.595 1.93962 685.059 1.92456C685.848 1.85075 686.622 1.57058 687.262 1.09912C686.673 0.665309 685.97 0.394179 685.245 0.293259H685.244Z" fill="#2F221B" fill-opacity="0.3"/>
<path d="M621.046 0.879201C620.449 0.526732 619.773 0.302297 619.083 0.234514C618.249 0.192339 617.413 0.284222 616.578 0.312841C615.771 0.374598 614.952 0.350498 614.153 0.498113C613.361 0.651753 612.608 0.969577 611.933 1.4079C612.674 1.73326 613.478 1.93058 614.287 1.96974C615.001 1.99987 615.712 1.90648 616.426 1.87937C617.681 1.76338 619 1.91401 620.183 1.40338C620.461 1.2874 620.728 1.14431 620.986 0.986146C621.034 0.945477 621.157 0.922883 621.046 0.879201Z" fill="#2F221B" fill-opacity="0.3"/>
<path d="M637.746 0.602044C637.058 0.326395 636.32 0.32037 635.591 0.321876C633.985 0.294763 632.615 0.263131 631.519 0.228487C630.244 0.121541 628.939 0.297776 627.807 0.921374C628.552 1.41242 629.412 1.73175 630.296 1.84773C630.893 1.89443 631.492 1.8869 632.09 1.9125C633.038 1.93811 633.985 1.95769 634.933 1.97577C635.508 1.98029 636.083 2.00891 636.659 1.99535C637.296 1.9366 637.92 1.74079 638.471 1.41694H638.472C638.509 1.40188 638.515 1.39886 638.558 1.39736C638.551 1.39736 638.552 1.39736 638.563 1.39736C638.599 1.39886 638.634 1.40489 638.668 1.41393C638.689 1.41995 638.709 1.42748 638.729 1.43501C638.73 1.41995 638.732 1.40639 638.732 1.39133C638.732 0.912336 638.103 0.766228 637.746 0.600537V0.602044Z" fill="#2F221B" fill-opacity="0.3"/>
<path d="M652.514 0.293259C652.013 0.245058 651.509 0.275184 651.006 0.267652C649.995 0.27669 648.983 0.246564 647.974 0.278196C647.086 0.367067 646.216 0.644221 645.448 1.09912C646.14 1.50882 646.919 1.77393 647.715 1.88991C648.782 1.98179 649.861 1.90949 650.933 1.93058C651.399 1.92606 651.864 1.93962 652.328 1.92456C653.118 1.85075 653.892 1.57058 654.532 1.09912C653.943 0.665309 653.24 0.394179 652.515 0.293259H652.514Z" fill="#2F221B" fill-opacity="0.3"/>
<path d="M671.386 1.07949C671.041 0.861083 670.671 0.683343 670.28 0.565853C669.707 0.364012 669.101 0.333886 668.499 0.34443C667.846 0.338405 667.193 0.326355 666.54 0.317317C665.596 0.317317 664.649 0.264598 663.704 0.297736C662.833 0.377568 661.976 0.645686 661.246 1.13071C661.657 1.33104 662.091 1.48016 662.529 1.60669C662.484 1.59313 662.44 1.58108 662.395 1.56753C662.859 1.71364 663.335 1.83112 663.822 1.86426C665.186 1.90041 666.552 1.89891 667.917 1.90794C668.952 1.93506 670.02 1.92753 670.955 1.42292C671.13 1.33556 671.3 1.24066 671.463 1.13071C671.437 1.11414 671.413 1.09757 671.388 1.081L671.386 1.07949Z" fill="#2F221B" fill-opacity="0.3"/>
<path d="M703.15 0.879193C702.554 0.526724 701.878 0.302289 701.188 0.234507C700.353 0.192331 699.517 0.284214 698.683 0.312833C697.875 0.37459 697.056 0.35049 696.258 0.498105C695.465 0.651745 694.712 0.969569 694.037 1.4079C694.778 1.73325 695.583 1.93057 696.392 1.96974C697.106 1.99986 697.817 1.90647 698.531 1.87936C699.785 1.76338 701.105 1.914 702.287 1.40338C702.566 1.28739 702.832 1.1443 703.09 0.986138C703.138 0.945469 703.262 0.922875 703.15 0.879193Z" fill="#2F221B" fill-opacity="0.3"/>
<path d="M719.85 0.602044C719.162 0.326395 718.424 0.32037 717.695 0.321876C716.089 0.294763 714.718 0.263131 713.623 0.228487C712.347 0.121541 711.043 0.297776 709.91 0.921374C710.656 1.41242 711.516 1.73175 712.4 1.84773C712.997 1.89443 713.596 1.8869 714.194 1.9125C715.142 1.93811 716.089 1.95769 717.036 1.97577C717.612 1.98029 718.187 2.00891 718.763 1.99535C719.4 1.9366 720.023 1.74079 720.575 1.41694H720.576C720.612 1.40188 720.618 1.39886 720.662 1.39736C720.655 1.39736 720.656 1.39736 720.667 1.39736C720.703 1.39886 720.737 1.40489 720.772 1.41393C720.793 1.41995 720.813 1.42748 720.832 1.43501C720.834 1.41995 720.835 1.40639 720.835 1.39133C720.835 0.912336 720.207 0.766228 719.85 0.600537V0.602044Z" fill="#2F221B" fill-opacity="0.3"/>
<path d="M734.618 0.293251C734.118 0.245051 733.613 0.275176 733.11 0.267645C732.099 0.276682 731.087 0.246557 730.078 0.278189C729.191 0.367059 728.32 0.644214 727.552 1.09911C728.245 1.50882 729.024 1.77392 729.819 1.8899C730.887 1.98179 731.965 1.90949 733.038 1.93057C733.503 1.92605 733.969 1.93961 734.433 1.92455C735.222 1.85074 735.996 1.57057 736.636 1.09911C736.047 0.665302 735.344 0.394172 734.619 0.293251H734.618Z" fill="#2F221B" fill-opacity="0.3"/>
<path d="M753.49 1.07949C753.145 0.861083 752.774 0.683343 752.384 0.565853C751.81 0.364012 751.205 0.333886 750.602 0.34443C749.95 0.338405 749.296 0.326355 748.644 0.317317C747.7 0.317317 746.752 0.264598 745.808 0.297736C744.937 0.377568 744.08 0.645686 743.35 1.13071C743.761 1.33104 744.195 1.48016 744.633 1.60669C744.588 1.59313 744.544 1.58108 744.499 1.56753C744.963 1.71364 745.439 1.83112 745.925 1.86426C747.29 1.90041 748.656 1.89891 750.021 1.90794C751.056 1.93506 752.124 1.92753 753.059 1.42292C753.234 1.33556 753.404 1.24066 753.567 1.13071C753.541 1.11414 753.517 1.09757 753.491 1.081L753.49 1.07949Z" fill="#2F221B" fill-opacity="0.3"/>
<path d="M769.395 0.879201C768.798 0.526732 768.122 0.302297 767.432 0.234514C766.598 0.192339 765.762 0.284222 764.927 0.312841C764.12 0.374598 763.3 0.350498 762.502 0.498113C761.71 0.651753 760.957 0.969577 760.282 1.4079C761.023 1.73326 761.827 1.93058 762.636 1.96974C763.35 1.99987 764.061 1.90648 764.775 1.87937C766.03 1.76338 767.349 1.91401 768.532 1.40338C768.81 1.2874 769.077 1.14431 769.334 0.986146C769.383 0.945477 769.506 0.922883 769.395 0.879201Z" fill="#2F221B" fill-opacity="0.3"/>
<path d="M786.095 0.602044C785.406 0.326395 784.668 0.32037 783.939 0.321876C782.333 0.294763 780.963 0.263131 779.868 0.228487C778.592 0.121541 777.287 0.297776 776.155 0.921374C776.9 1.41242 777.76 1.73175 778.645 1.84773C779.241 1.89443 779.841 1.8869 780.439 1.9125C781.386 1.93811 782.333 1.95769 783.281 1.97577C783.856 1.98029 784.432 2.00891 785.007 1.99535C785.644 1.9366 786.268 1.74079 786.819 1.41694H786.821C786.857 1.40188 786.863 1.39886 786.906 1.39736C786.899 1.39736 786.9 1.39736 786.911 1.39736C786.947 1.39886 786.982 1.40489 787.016 1.41393C787.038 1.41995 787.057 1.42748 787.077 1.43501C787.078 1.41995 787.08 1.40639 787.08 1.39133C787.08 0.912336 786.452 0.766228 786.095 0.600537V0.602044Z" fill="#2F221B" fill-opacity="0.3"/>
<path d="M800.861 0.293259C800.361 0.245058 799.856 0.275184 799.353 0.267652C798.343 0.27669 797.33 0.246564 796.321 0.278196C795.434 0.367067 794.563 0.644221 793.795 1.09912C794.488 1.50882 795.267 1.77393 796.062 1.88991C797.13 1.98179 798.209 1.90949 799.281 1.93058C799.746 1.92606 800.212 1.93962 800.676 1.92456C801.465 1.85075 802.239 1.57058 802.88 1.09912C802.291 0.665309 801.587 0.394179 800.863 0.293259H800.861Z" fill="#2F221B" fill-opacity="0.3"/>
<path d="M819.734 1.07949C819.389 0.861083 819.019 0.683343 818.629 0.565853C818.055 0.364012 817.449 0.333886 816.847 0.34443C816.195 0.338405 815.541 0.326355 814.889 0.317317C813.944 0.317317 812.997 0.264598 812.052 0.297736C811.182 0.377568 810.325 0.645686 809.594 1.13071C810.005 1.33104 810.439 1.48016 810.877 1.60669C810.832 1.59313 810.788 1.58108 810.743 1.56753C811.207 1.71364 811.683 1.83112 812.17 1.86426C813.534 1.90041 814.901 1.89891 816.265 1.90794C817.3 1.93506 818.368 1.92753 819.303 1.42292C819.478 1.33556 819.648 1.24066 819.811 1.13071C819.785 1.11414 819.761 1.09757 819.736 1.081L819.734 1.07949Z" fill="#2F221B" fill-opacity="0.3"/>
<path d="M899.835 0.293251C899.335 0.245051 898.831 0.275176 898.328 0.267645C897.317 0.276682 896.305 0.246557 895.295 0.278189C894.408 0.367059 893.538 0.644214 892.769 1.09911C893.462 1.50882 894.241 1.77392 895.036 1.8899C896.104 1.98179 897.183 1.90949 898.255 1.93057C898.721 1.92605 899.186 1.93961 899.65 1.92455C900.439 1.85074 901.214 1.57057 901.854 1.09911C901.265 0.665302 900.561 0.394172 899.837 0.293251H899.835Z" fill="#2F221B" fill-opacity="0.3"/>
<path d="M835.638 0.879193C835.041 0.526724 834.365 0.302289 833.675 0.234507C832.841 0.192331 832.005 0.284214 831.17 0.312833C830.363 0.37459 829.543 0.35049 828.745 0.498105C827.953 0.651745 827.2 0.969569 826.525 1.4079C827.266 1.73325 828.07 1.93057 828.879 1.96974C829.593 1.99986 830.304 1.90647 831.018 1.87936C832.273 1.76338 833.592 1.914 834.775 1.40338C835.053 1.28739 835.32 1.1443 835.578 0.986138C835.626 0.945469 835.749 0.922875 835.638 0.879193Z" fill="#2F221B" fill-opacity="0.3"/>
<path d="M852.34 0.602044C851.651 0.326395 850.913 0.32037 850.184 0.321876C848.578 0.294763 847.208 0.263131 846.113 0.228487C844.837 0.121541 843.532 0.297776 842.4 0.921374C843.145 1.41242 844.005 1.73175 844.89 1.84773C845.486 1.89443 846.086 1.8869 846.683 1.9125C847.631 1.93811 848.578 1.95769 849.526 1.97577C850.101 1.98029 850.677 2.00891 851.252 1.99535C851.889 1.9366 852.513 1.74079 853.064 1.41694H853.066C853.102 1.40188 853.108 1.39886 853.151 1.39736C853.144 1.39736 853.145 1.39736 853.156 1.39736C853.192 1.39886 853.227 1.40489 853.261 1.41393C853.282 1.41995 853.302 1.42748 853.322 1.43501C853.323 1.41995 853.325 1.40639 853.325 1.39133C853.325 0.912336 852.697 0.766228 852.34 0.600537V0.602044Z" fill="#2F221B" fill-opacity="0.3"/>
<path d="M867.105 0.293251C866.605 0.245051 866.101 0.275176 865.598 0.267645C864.587 0.276682 863.575 0.246557 862.566 0.278189C861.678 0.367059 860.808 0.644214 860.039 1.09911C860.732 1.50882 861.511 1.77392 862.306 1.8899C863.374 1.98179 864.453 1.90949 865.525 1.93057C865.991 1.92605 866.456 1.93961 866.92 1.92455C867.709 1.85074 868.484 1.57057 869.124 1.09911C868.535 0.665302 867.831 0.394172 867.107 0.293251H867.105Z" fill="#2F221B" fill-opacity="0.3"/>
<path d="M885.978 1.07953C885.633 0.861117 885.262 0.683377 884.872 0.565887C884.298 0.364046 883.693 0.333921 883.09 0.344465C882.438 0.33844 881.784 0.326389 881.132 0.317352C880.187 0.317352 879.24 0.264632 878.296 0.29777C877.425 0.377603 876.568 0.64572 875.837 1.13074C876.249 1.33108 876.682 1.4802 877.121 1.60672C877.076 1.59317 877.032 1.58112 876.987 1.56756C877.451 1.71367 877.927 1.83116 878.413 1.8643C879.778 1.90045 881.144 1.89894 882.509 1.90798C883.543 1.93509 884.611 1.92756 885.547 1.42296C885.721 1.33559 885.892 1.2407 886.054 1.13074C886.029 1.11417 886.005 1.0976 885.979 1.08103L885.978 1.07953Z" fill="#2F221B" fill-opacity="0.3"/>
<path d="M948.538 0.293259C948.038 0.245058 947.533 0.275184 947.03 0.267652C946.019 0.27669 945.007 0.246564 943.998 0.278196C943.111 0.367067 942.24 0.644221 941.472 1.09912C942.165 1.50882 942.944 1.77393 943.739 1.88991C944.807 1.98179 945.885 1.90949 946.958 1.93058C947.423 1.92606 947.889 1.93962 948.353 1.92456C949.142 1.85075 949.916 1.57058 950.556 1.09912C949.967 0.665309 949.264 0.394179 948.539 0.293259H948.538Z" fill="#2F221B" fill-opacity="0.3"/>
<path d="M915.808 0.293259C915.308 0.245058 914.803 0.275184 914.3 0.267652C913.289 0.27669 912.277 0.246564 911.268 0.278196C910.38 0.367067 909.51 0.644221 908.742 1.09912C909.435 1.50882 910.213 1.77393 911.009 1.88991C912.077 1.98179 913.155 1.90949 914.228 1.93058C914.693 1.92606 915.158 1.93962 915.622 1.92456C916.412 1.85075 917.186 1.57058 917.826 1.09912C917.237 0.665309 916.534 0.394179 915.809 0.293259H915.808Z" fill="#2F221B" fill-opacity="0.3"/>
<path d="M934.68 1.07949C934.335 0.861083 933.965 0.683343 933.575 0.565853C933.001 0.364012 932.395 0.333886 931.793 0.34443C931.141 0.338405 930.487 0.326355 929.835 0.317317C928.89 0.317317 927.943 0.264598 926.998 0.297736C926.128 0.377568 925.27 0.645686 924.54 1.13071C924.951 1.33104 925.385 1.48016 925.823 1.60669C925.778 1.59313 925.734 1.58108 925.689 1.56753C926.153 1.71364 926.629 1.83112 927.116 1.86426C928.48 1.90041 929.847 1.89891 931.211 1.90794C932.246 1.93506 933.314 1.92753 934.249 1.42292C934.424 1.33556 934.594 1.24066 934.757 1.13071C934.731 1.11414 934.707 1.09757 934.682 1.081L934.68 1.07949Z" fill="#2F221B" fill-opacity="0.3"/>
<path d="M967.669 0.879193C967.073 0.526724 966.396 0.302289 965.707 0.234507C964.872 0.192331 964.036 0.284214 963.202 0.312833C962.394 0.37459 961.575 0.35049 960.777 0.498105C959.986 0.651745 959.231 0.971076 958.556 1.4094C959.297 1.73476 960.102 1.93208 960.911 1.97124C961.625 2.00137 962.336 1.90798 963.05 1.88087C964.304 1.76488 965.624 1.91551 966.806 1.40488C967.085 1.2889 967.352 1.1458 967.609 0.987645C967.657 0.946975 967.781 0.924381 967.669 0.880699V0.879193Z" fill="#2F221B" fill-opacity="0.3"/>
<path d="M984.371 0.602044C983.683 0.326395 982.945 0.32037 982.216 0.321876C980.61 0.294763 979.239 0.263131 978.144 0.228487C976.868 0.121541 975.564 0.297776 974.431 0.921374C975.177 1.41242 976.037 1.73175 976.921 1.84773C977.517 1.89443 978.117 1.8869 978.715 1.9125C979.662 1.93811 980.61 1.95769 981.557 1.97577C982.133 1.98029 982.708 2.00891 983.283 1.99535C983.921 1.9366 984.544 1.74079 985.096 1.41694H985.097C985.133 1.40188 985.139 1.39886 985.183 1.39736C985.175 1.39736 985.177 1.39736 985.187 1.39736C985.224 1.39886 985.258 1.40489 985.293 1.41393C985.314 1.41995 985.333 1.42748 985.353 1.43501C985.355 1.41995 985.356 1.40639 985.356 1.39133C985.356 0.912336 984.728 0.766228 984.371 0.600537V0.602044Z" fill="#2F221B" fill-opacity="0.3"/>
<path d="M999.137 0.293251C998.637 0.245051 998.132 0.275176 997.629 0.267645C996.618 0.276682 995.606 0.246557 994.597 0.278189C993.71 0.367059 992.839 0.644214 992.071 1.09911C992.764 1.50882 993.543 1.77392 994.338 1.8899C995.406 1.98179 996.484 1.90949 997.557 1.93057C998.022 1.92605 998.488 1.93961 998.952 1.92455C999.741 1.85074 1000.52 1.57057 1001.16 1.09911C1000.57 0.665302 999.863 0.394172 999.138 0.293251H999.137Z" fill="#2F221B" fill-opacity="0.3"/>
<path d="M1018.01 1.07949C1017.66 0.861083 1017.29 0.683343 1016.9 0.565853C1016.33 0.364012 1015.72 0.333886 1015.12 0.34443C1014.47 0.338405 1013.82 0.326355 1013.16 0.317317C1012.22 0.317317 1011.27 0.264598 1010.33 0.297736C1009.46 0.377568 1008.6 0.645686 1007.87 1.13071C1008.28 1.33104 1008.71 1.48016 1009.15 1.60669C1009.11 1.59313 1009.06 1.58108 1009.02 1.56753C1009.48 1.71364 1009.96 1.83112 1010.44 1.86426C1011.81 1.90041 1013.18 1.89891 1014.54 1.90794C1015.57 1.93506 1016.64 1.92753 1017.58 1.42292C1017.75 1.33556 1017.92 1.24066 1018.09 1.13071C1018.06 1.11414 1018.04 1.09757 1018.01 1.081L1018.01 1.07949Z" fill="#2F221B" fill-opacity="0.3"/>
<path d="M1033.91 0.879201C1033.32 0.526732 1032.64 0.302297 1031.95 0.234514C1031.12 0.192339 1030.28 0.284222 1029.45 0.312841C1028.64 0.374598 1027.82 0.350498 1027.02 0.498113C1026.23 0.651753 1025.48 0.969577 1024.8 1.4079C1025.54 1.73326 1026.35 1.93058 1027.16 1.96974C1027.87 1.99987 1028.58 1.90648 1029.29 1.87937C1030.55 1.76338 1031.87 1.91401 1033.05 1.40338C1033.33 1.2874 1033.6 1.14431 1033.85 0.986146C1033.9 0.945477 1034.03 0.922883 1033.91 0.879201Z" fill="#2F221B" fill-opacity="0.3"/>
<path d="M1050.62 0.602044C1049.93 0.326395 1049.19 0.32037 1048.46 0.321876C1046.85 0.294763 1045.48 0.263131 1044.39 0.228487C1043.11 0.121541 1041.81 0.297776 1040.68 0.921374C1041.42 1.41242 1042.28 1.73175 1043.17 1.84773C1043.76 1.89443 1044.36 1.8869 1044.96 1.9125C1045.91 1.93811 1046.85 1.95769 1047.8 1.97577C1048.38 1.98029 1048.95 2.00891 1049.53 1.99535C1050.17 1.9366 1050.79 1.74079 1051.34 1.41694H1051.34C1051.38 1.40188 1051.38 1.39886 1051.43 1.39736C1051.42 1.39736 1051.42 1.39736 1051.43 1.39736C1051.47 1.39886 1051.5 1.40489 1051.54 1.41393C1051.56 1.41995 1051.58 1.42748 1051.6 1.43501C1051.6 1.41995 1051.6 1.40639 1051.6 1.39133C1051.6 0.912336 1050.97 0.766228 1050.62 0.600537V0.602044Z" fill="#2F221B" fill-opacity="0.3"/>
<path d="M1065.38 0.293259C1064.88 0.245058 1064.38 0.275184 1063.87 0.267652C1062.86 0.27669 1061.85 0.246564 1060.84 0.278196C1059.95 0.367067 1059.08 0.644221 1058.32 1.09912C1059.01 1.50882 1059.79 1.77393 1060.58 1.88991C1061.65 1.98179 1062.73 1.90949 1063.8 1.93058C1064.27 1.92606 1064.73 1.93962 1065.2 1.92456C1065.99 1.85075 1066.76 1.57058 1067.4 1.09912C1066.81 0.665309 1066.11 0.394179 1065.38 0.293259H1065.38Z" fill="#2F221B" fill-opacity="0.3"/>
<path d="M1084.25 1.07949C1083.91 0.861083 1083.54 0.683343 1083.15 0.565853C1082.57 0.364012 1081.97 0.333886 1081.37 0.34443C1080.71 0.338405 1080.06 0.326355 1079.41 0.317317C1078.46 0.317317 1077.52 0.264598 1076.57 0.297736C1075.7 0.377568 1074.84 0.645686 1074.11 1.13071C1074.52 1.33104 1074.96 1.48016 1075.4 1.60669C1075.35 1.59313 1075.31 1.58108 1075.26 1.56753C1075.73 1.71364 1076.2 1.83112 1076.69 1.86426C1078.05 1.90041 1079.42 1.89891 1080.78 1.90794C1081.82 1.93506 1082.89 1.92753 1083.82 1.42292C1084 1.33556 1084.17 1.24066 1084.33 1.13071C1084.31 1.11414 1084.28 1.09757 1084.26 1.081L1084.25 1.07949Z" fill="#2F221B" fill-opacity="0.3"/>
<path d="M1164.36 0.293259C1163.86 0.245058 1163.35 0.275184 1162.85 0.267652C1161.84 0.27669 1160.83 0.246564 1159.82 0.278196C1158.93 0.367067 1158.06 0.644221 1157.29 1.09912C1157.98 1.50882 1158.76 1.77393 1159.56 1.88991C1160.62 1.98179 1161.7 1.90949 1162.78 1.93058C1163.24 1.92606 1163.71 1.93962 1164.17 1.92456C1164.96 1.85075 1165.73 1.57058 1166.37 1.09912C1165.79 0.665309 1165.08 0.394179 1164.36 0.293259H1164.36Z" fill="#2F221B" fill-opacity="0.3"/>
<path d="M1100.16 0.879201C1099.56 0.526732 1098.89 0.302297 1098.2 0.234514C1097.36 0.192339 1096.52 0.284222 1095.69 0.312841C1094.88 0.374598 1094.06 0.350498 1093.27 0.498113C1092.47 0.651753 1091.72 0.969577 1091.05 1.4079C1091.79 1.73326 1092.59 1.93058 1093.4 1.96974C1094.11 1.99987 1094.82 1.90648 1095.54 1.87937C1096.79 1.76338 1098.11 1.91401 1099.29 1.40338C1099.57 1.2874 1099.84 1.14431 1100.1 0.986146C1100.15 0.945477 1100.27 0.922883 1100.16 0.879201Z" fill="#2F221B" fill-opacity="0.3"/>
<path d="M1116.86 0.602044C1116.17 0.326395 1115.43 0.32037 1114.7 0.321876C1113.1 0.294763 1111.73 0.263131 1110.63 0.228487C1109.36 0.121541 1108.05 0.297776 1106.92 0.921374C1107.66 1.41242 1108.52 1.73175 1109.41 1.84773C1110 1.89443 1110.6 1.8869 1111.2 1.9125C1112.15 1.93811 1113.1 1.95769 1114.04 1.97577C1114.62 1.98029 1115.2 2.00891 1115.77 1.99535C1116.41 1.9366 1117.03 1.74079 1117.58 1.41694H1117.58C1117.62 1.40188 1117.63 1.39886 1117.67 1.39736C1117.66 1.39736 1117.66 1.39736 1117.67 1.39736C1117.71 1.39886 1117.75 1.40489 1117.78 1.41393C1117.8 1.41995 1117.82 1.42748 1117.84 1.43501C1117.84 1.41995 1117.84 1.40639 1117.84 1.39133C1117.84 0.912336 1117.22 0.766228 1116.86 0.600537V0.602044Z" fill="#2F221B" fill-opacity="0.3"/>
<path d="M1131.63 0.293259C1131.13 0.245058 1130.62 0.275184 1130.12 0.267652C1129.11 0.27669 1128.09 0.246564 1127.09 0.278196C1126.2 0.367067 1125.33 0.644221 1124.56 1.09912C1125.25 1.50882 1126.03 1.77393 1126.83 1.88991C1127.89 1.98179 1128.97 1.90949 1130.05 1.93058C1130.51 1.92606 1130.98 1.93962 1131.44 1.92456C1132.23 1.85075 1133 1.57058 1133.64 1.09912C1133.06 0.665309 1132.35 0.394179 1131.63 0.293259H1131.63Z" fill="#2F221B" fill-opacity="0.3"/>
<path d="M1150.5 1.07949C1150.15 0.861083 1149.78 0.683343 1149.39 0.565853C1148.82 0.364012 1148.21 0.333886 1147.61 0.34443C1146.96 0.338405 1146.3 0.326355 1145.65 0.317317C1144.71 0.317317 1143.76 0.264598 1142.82 0.297736C1141.95 0.377568 1141.09 0.645686 1140.36 1.13071C1140.77 1.33104 1141.2 1.48016 1141.64 1.60669C1141.6 1.59313 1141.55 1.58108 1141.51 1.56753C1141.97 1.71364 1142.45 1.83112 1142.93 1.86426C1144.3 1.90041 1145.66 1.89891 1147.03 1.90794C1148.06 1.93506 1149.13 1.92753 1150.07 1.42292C1150.24 1.33556 1150.41 1.24066 1150.58 1.13071C1150.55 1.11414 1150.53 1.09757 1150.5 1.081L1150.5 1.07949Z" fill="#2F221B" fill-opacity="0.3"/>
<path d="M1182.26 0.879193C1181.67 0.526724 1180.99 0.302289 1180.3 0.234507C1179.47 0.192331 1178.63 0.284214 1177.79 0.312833C1176.99 0.37459 1176.17 0.35049 1175.37 0.498105C1174.58 0.651745 1173.82 0.969569 1173.15 1.4079C1173.89 1.73325 1174.69 1.93057 1175.5 1.96974C1176.22 1.99986 1176.93 1.90647 1177.64 1.87936C1178.9 1.76338 1180.22 1.914 1181.4 1.40338C1181.68 1.28739 1181.94 1.1443 1182.2 0.986138C1182.25 0.945469 1182.37 0.922875 1182.26 0.879193Z" fill="#2F221B" fill-opacity="0.3"/>
<path d="M1198.96 0.602044C1198.27 0.326395 1197.54 0.32037 1196.81 0.321876C1195.2 0.294763 1193.83 0.263131 1192.74 0.228487C1191.46 0.121541 1190.16 0.297776 1189.02 0.921374C1189.77 1.41242 1190.63 1.73175 1191.51 1.84773C1192.11 1.89443 1192.71 1.8869 1193.31 1.9125C1194.25 1.93811 1195.2 1.95769 1196.15 1.97577C1196.72 1.98029 1197.3 2.00891 1197.87 1.99535C1198.51 1.9366 1199.14 1.74079 1199.69 1.41694H1199.69C1199.72 1.40188 1199.73 1.39886 1199.77 1.39736C1199.77 1.39736 1199.77 1.39736 1199.78 1.39736C1199.81 1.39886 1199.85 1.40489 1199.88 1.41393C1199.91 1.41995 1199.92 1.42748 1199.94 1.43501C1199.95 1.41995 1199.95 1.40639 1199.95 1.39133C1199.95 0.912336 1199.32 0.766228 1198.96 0.600537V0.602044Z" fill="#2F221B" fill-opacity="0.3"/>
<path d="M1213.73 0.293251C1213.23 0.245051 1212.73 0.275176 1212.22 0.267645C1211.21 0.276682 1210.2 0.246557 1209.19 0.278189C1208.3 0.367059 1207.43 0.644214 1206.66 1.09911C1207.36 1.50882 1208.14 1.77392 1208.93 1.8899C1210 1.98179 1211.08 1.90949 1212.15 1.93057C1212.62 1.92605 1213.08 1.93961 1213.54 1.92455C1214.33 1.85074 1215.11 1.57057 1215.75 1.09911C1215.16 0.665302 1214.46 0.394172 1213.73 0.293251H1213.73Z" fill="#2F221B" fill-opacity="0.3"/>
<path d="M1232.6 1.07949C1232.26 0.861083 1231.89 0.683343 1231.5 0.565853C1230.92 0.364012 1230.32 0.333886 1229.71 0.34443C1229.06 0.338405 1228.41 0.326355 1227.76 0.317317C1226.81 0.317317 1225.86 0.264598 1224.92 0.297736C1224.05 0.377568 1223.19 0.645686 1222.46 1.13071C1222.87 1.33104 1223.31 1.48016 1223.75 1.60669C1223.7 1.59313 1223.66 1.58108 1223.61 1.56753C1224.08 1.71364 1224.55 1.83112 1225.04 1.86426C1226.4 1.90041 1227.77 1.89891 1229.13 1.90794C1230.17 1.93506 1231.24 1.92753 1232.17 1.42292C1232.35 1.33556 1232.52 1.24066 1232.68 1.13071C1232.65 1.11414 1232.63 1.09757 1232.6 1.081L1232.6 1.07949Z" fill="#2F221B" fill-opacity="0.3"/>
<path d="M1248.51 0.879201C1247.91 0.526732 1247.23 0.302297 1246.54 0.234514C1245.71 0.192339 1244.87 0.284222 1244.04 0.312841C1243.23 0.374598 1242.41 0.350498 1241.61 0.498113C1240.82 0.651753 1240.07 0.969577 1239.39 1.4079C1240.13 1.73326 1240.94 1.93058 1241.75 1.96974C1242.46 1.99987 1243.17 1.90648 1243.89 1.87937C1245.14 1.76338 1246.46 1.91401 1247.64 1.40338C1247.92 1.2874 1248.19 1.14431 1248.45 0.986146C1248.49 0.945477 1248.62 0.922883 1248.51 0.879201Z" fill="#2F221B" fill-opacity="0.3"/>
<path d="M1265.21 0.602044C1264.52 0.326395 1263.78 0.32037 1263.05 0.321876C1261.45 0.294763 1260.07 0.263131 1258.98 0.228487C1257.7 0.121541 1256.4 0.297776 1255.27 0.921374C1256.01 1.41242 1256.87 1.73175 1257.76 1.84773C1258.35 1.89443 1258.95 1.8869 1259.55 1.9125C1260.5 1.93811 1261.45 1.95769 1262.39 1.97577C1262.97 1.98029 1263.54 2.00891 1264.12 1.99535C1264.76 1.9366 1265.38 1.74079 1265.93 1.41694H1265.93C1265.97 1.40188 1265.97 1.39886 1266.02 1.39736C1266.01 1.39736 1266.01 1.39736 1266.02 1.39736C1266.06 1.39886 1266.09 1.40489 1266.13 1.41393C1266.15 1.41995 1266.17 1.42748 1266.19 1.43501C1266.19 1.41995 1266.19 1.40639 1266.19 1.39133C1266.19 0.912336 1265.56 0.766228 1265.21 0.600537V0.602044Z" fill="#2F221B" fill-opacity="0.3"/>
<path d="M1279.97 0.293259C1279.47 0.245058 1278.97 0.275184 1278.47 0.267652C1277.45 0.27669 1276.44 0.246564 1275.43 0.278196C1274.55 0.367067 1273.68 0.644221 1272.91 1.09912C1273.6 1.50882 1274.38 1.77393 1275.17 1.88991C1276.24 1.98179 1277.32 1.90949 1278.39 1.93058C1278.86 1.92606 1279.32 1.93962 1279.79 1.92456C1280.58 1.85075 1281.35 1.57058 1281.99 1.09912C1281.4 0.665309 1280.7 0.394179 1279.97 0.293259H1279.97Z" fill="#2F221B" fill-opacity="0.3"/>
<path d="M1298.85 1.07949C1298.5 0.861083 1298.13 0.683343 1297.74 0.565853C1297.17 0.364012 1296.56 0.333886 1295.96 0.34443C1295.31 0.338405 1294.65 0.326355 1294 0.317317C1293.06 0.317317 1292.11 0.264598 1291.16 0.297736C1290.29 0.377568 1289.44 0.645686 1288.71 1.13071C1289.12 1.33104 1289.55 1.48016 1289.99 1.60669C1289.94 1.59313 1289.9 1.58108 1289.86 1.56753C1290.32 1.71364 1290.8 1.83112 1291.28 1.86426C1292.65 1.90041 1294.01 1.89891 1295.38 1.90794C1296.41 1.93506 1297.48 1.92753 1298.42 1.42292C1298.59 1.33556 1298.76 1.24066 1298.92 1.13071C1298.9 1.11414 1298.87 1.09757 1298.85 1.081L1298.85 1.07949Z" fill="#2F221B" fill-opacity="0.3"/>
<path d="M1378.95 0.293251C1378.45 0.245051 1377.94 0.275176 1377.44 0.267645C1376.43 0.276682 1375.42 0.246557 1374.41 0.278189C1373.52 0.367059 1372.65 0.644214 1371.88 1.09911C1372.57 1.50882 1373.35 1.77392 1374.15 1.8899C1375.22 1.98179 1376.29 1.90949 1377.37 1.93057C1377.83 1.92605 1378.3 1.93961 1378.76 1.92455C1379.55 1.85074 1380.33 1.57057 1380.97 1.09911C1380.38 0.665302 1379.67 0.394172 1378.95 0.293251H1378.95Z" fill="#2F221B" fill-opacity="0.3"/>
<path d="M1314.75 0.879193C1314.15 0.526724 1313.48 0.302289 1312.79 0.234507C1311.95 0.192331 1311.12 0.284214 1310.28 0.312833C1309.47 0.37459 1308.66 0.35049 1307.86 0.498105C1307.06 0.651745 1306.31 0.969569 1305.64 1.4079C1306.38 1.73325 1307.18 1.93057 1307.99 1.96974C1308.71 1.99986 1309.42 1.90647 1310.13 1.87936C1311.39 1.76338 1312.7 1.914 1313.89 1.40338C1314.17 1.28739 1314.43 1.1443 1314.69 0.986138C1314.74 0.945469 1314.86 0.922875 1314.75 0.879193Z" fill="#2F221B" fill-opacity="0.3"/>
<path d="M1331.45 0.602044C1330.76 0.326395 1330.03 0.32037 1329.3 0.321876C1327.69 0.294763 1326.32 0.263131 1325.22 0.228487C1323.95 0.121541 1322.64 0.297776 1321.51 0.921374C1322.26 1.41242 1323.12 1.73175 1324 1.84773C1324.6 1.89443 1325.2 1.8869 1325.8 1.9125C1326.74 1.93811 1327.69 1.95769 1328.64 1.97577C1329.21 1.98029 1329.79 2.00891 1330.36 1.99535C1331 1.9366 1331.62 1.74079 1332.18 1.41694H1332.18C1332.21 1.40188 1332.22 1.39886 1332.26 1.39736C1332.26 1.39736 1332.26 1.39736 1332.27 1.39736C1332.3 1.39886 1332.34 1.40489 1332.37 1.41393C1332.39 1.41995 1332.41 1.42748 1332.43 1.43501C1332.44 1.41995 1332.44 1.40639 1332.44 1.39133C1332.44 0.912336 1331.81 0.766228 1331.45 0.600537V0.602044Z" fill="#2F221B" fill-opacity="0.3"/>
<path d="M1346.22 0.293251C1345.72 0.245051 1345.21 0.275176 1344.71 0.267645C1343.7 0.276682 1342.69 0.246557 1341.68 0.278189C1340.79 0.367059 1339.92 0.644214 1339.15 1.09911C1339.84 1.50882 1340.62 1.77392 1341.42 1.8899C1342.49 1.98179 1343.56 1.90949 1344.64 1.93057C1345.1 1.92605 1345.57 1.93961 1346.03 1.92455C1346.82 1.85074 1347.6 1.57057 1348.24 1.09911C1347.65 0.665302 1346.94 0.394172 1346.22 0.293251H1346.22Z" fill="#2F221B" fill-opacity="0.3"/>
<path d="M1365.09 1.07953C1364.74 0.861117 1364.37 0.683377 1363.98 0.565887C1363.41 0.364046 1362.8 0.333921 1362.2 0.344465C1361.55 0.33844 1360.9 0.326389 1360.24 0.317352C1359.3 0.317352 1358.35 0.264632 1357.41 0.29777C1356.54 0.377603 1355.68 0.64572 1354.95 1.13074C1355.36 1.33108 1355.79 1.4802 1356.23 1.60672C1356.19 1.59317 1356.14 1.58112 1356.1 1.56756C1356.56 1.71367 1357.04 1.83116 1357.53 1.8643C1358.89 1.90045 1360.26 1.89894 1361.62 1.90798C1362.66 1.93509 1363.72 1.92756 1364.66 1.42296C1364.83 1.33559 1365 1.2407 1365.17 1.13074C1365.14 1.11417 1365.12 1.0976 1365.09 1.08103L1365.09 1.07953Z" fill="#2F221B" fill-opacity="0.3"/>
<path d="M1427.65 0.293259C1427.15 0.245058 1426.65 0.275184 1426.14 0.267652C1425.13 0.27669 1424.12 0.246564 1423.11 0.278196C1422.22 0.367067 1421.35 0.644221 1420.58 1.09912C1421.28 1.50882 1422.06 1.77393 1422.85 1.88991C1423.92 1.98179 1425 1.90949 1426.07 1.93058C1426.54 1.92606 1427 1.93962 1427.46 1.92456C1428.25 1.85075 1429.03 1.57058 1429.67 1.09912C1429.08 0.665309 1428.38 0.394179 1427.65 0.293259H1427.65Z" fill="#2F221B" fill-opacity="0.3"/>
<path d="M1394.92 0.293259C1394.42 0.245058 1393.92 0.275184 1393.41 0.267652C1392.4 0.27669 1391.39 0.246564 1390.38 0.278196C1389.49 0.367067 1388.62 0.644221 1387.85 1.09912C1388.55 1.50882 1389.33 1.77393 1390.12 1.88991C1391.19 1.98179 1392.27 1.90949 1393.34 1.93058C1393.81 1.92606 1394.27 1.93962 1394.73 1.92456C1395.52 1.85075 1396.3 1.57058 1396.94 1.09912C1396.35 0.665309 1395.65 0.394179 1394.92 0.293259H1394.92Z" fill="#2F221B" fill-opacity="0.3"/>
<path d="M1413.79 1.07949C1413.45 0.861083 1413.08 0.683343 1412.69 0.565853C1412.11 0.364012 1411.51 0.333886 1410.9 0.34443C1410.25 0.338405 1409.6 0.326355 1408.95 0.317317C1408 0.317317 1407.05 0.264598 1406.11 0.297736C1405.24 0.377568 1404.38 0.645686 1403.65 1.13071C1404.06 1.33104 1404.5 1.48016 1404.94 1.60669C1404.89 1.59313 1404.85 1.58108 1404.8 1.56753C1405.27 1.71364 1405.74 1.83112 1406.23 1.86426C1407.59 1.90041 1408.96 1.89891 1410.32 1.90794C1411.36 1.93506 1412.43 1.92753 1413.36 1.42292C1413.54 1.33556 1413.71 1.24066 1413.87 1.13071C1413.84 1.11414 1413.82 1.09757 1413.79 1.081L1413.79 1.07949Z" fill="#2F221B" fill-opacity="0.3"/>
</svg>
