<svg fill="none" height="8" viewBox="0 0 22 8" width="22" xmlns="http://www.w3.org/2000/svg" xmlns:xlink="http://www.w3.org/1999/xlink"><clipPath id="a"><path d="m0 0h22v8h-22z"/></clipPath><mask id="b" height="8" maskUnits="userSpaceOnUse" width="22" x="0" y="0"><path d="m22 0h-22v8h22z" fill="#fff"/></mask><g clip-path="url(#a)"><g mask="url(#b)"><path d="m-6.36719 3.54286c1.50527 1.14285 3.12632 3.65714 6.36842352 3.65714 3.24210648 0 4.86315648-1.37143 6.36841648-2.51429 1.27369-1.14285 2.43158-2.05714 4.86315-2.05714 2.4316 0 3.4737.91429 4.8632 2.05714 1.5052 1.14286 3.1263 2.51429 6.3684 2.51429s4.8631-2.51429 6.3684-3.65714l-1.621-1.02857c-1.2737 1.14285-2.4316 2.05714-4.8632 2.05714s-3.4737-.91429-4.8632-2.05714c-1.3894-1.14286-3.1263-2.51429-6.2526-2.51429-3.24209 0-4.86315 1.37143-6.36841 2.51429-1.38947 1.14285-2.43158 2.05714-4.86315648 2.05714-2.43158352 0-3.47368352-.91429-4.86315352-2.05714z" fill="#2f221b"/></g></g></svg>