<svg width="22" height="8" viewBox="0 0 22 8" fill="none" xmlns="http://www.w3.org/2000/svg">
<g clip-path="url(#clip0_255_715)">
<mask id="mask0_255_715" style="mask-type:luminance" maskUnits="userSpaceOnUse" x="0" y="0" width="22" height="8">
<path d="M22 0H0V8H22V0Z" fill="white"/>
</mask>
<g mask="url(#mask0_255_715)">
<path d="M-6.36719 3.54286C-4.86192 4.68571 -3.24087 7.2 0.00123352 7.2C3.24334 7.2 4.86439 5.82857 6.36965 4.68571C7.64334 3.54286 8.80123 2.62857 11.2328 2.62857C13.6644 2.62857 14.7065 3.54286 16.096 4.68571C17.6012 5.82857 19.2223 7.2 22.4644 7.2C25.7065 7.2 27.3275 4.68571 28.8328 3.54286L27.2118 2.51429C25.9381 3.65714 24.7802 4.57143 22.3486 4.57143C19.917 4.57143 18.8749 3.65714 17.4854 2.51429C16.096 1.37143 14.3591 0 11.2328 0C7.99071 0 6.36965 1.37143 4.86439 2.51429C3.47492 3.65714 2.43281 4.57143 0.00123352 4.57143C-2.43035 4.57143 -3.47245 3.65714 -4.86192 2.51429L-6.36719 3.54286Z" fill="#2F221B"/>
</g>
</g>
<defs>
<clipPath id="clip0_255_715">
<rect width="22" height="8" fill="white"/>
</clipPath>
</defs>
</svg>
